<?xml version="1.0" encoding="utf-8"?>
<!-- Generator: Adobe Illustrator 16.0.0, SVG Export Plug-In . SVG Version: 6.00 Build 0)  -->
<!DOCTYPE svg PUBLIC "-//W3C//DTD SVG 1.1//EN" "http://www.w3.org/Graphics/SVG/1.1/DTD/svg11.dtd">
<svg version="1.1" id="Layer_1" xmlns="http://www.w3.org/2000/svg" xmlns:xlink="http://www.w3.org/1999/xlink" x="0px" y="0px"
	 width="470px" height="246px" viewBox="0 0 470 246" enable-background="new 0 0 470 246" xml:space="preserve">
<sodipodi:namedview  bordercolor="#666666" pagecolor="#ffffff" borderopacity="1" objecttolerance="10" gridtolerance="10" guidetolerance="10" showgrid="false" id="namedview6524" inkscape:zoom="0.64049587" inkscape:cy="126.5" inkscape:cx="52.303226" inkscape:pageopacity="0" inkscape:pageshadow="2" inkscape:window-width="1083" inkscape:window-height="612" inkscape:window-x="0" inkscape:window-y="0" inkscape:window-maximized="0" inkscape:current-layer="Layer_1">
	</sodipodi:namedview>
<g>
	<g id="g5986" enable-background="new    ">
		<path id="path5988" fill="#7F6126" d="M182.085,35.807h9.886c4.921,0,8.927,1.224,12.018,3.67c3.095,2.447,4.64,5.58,4.64,9.4
			c0,3.057-1,5.754-3.002,8.096c-2,2.339-5.12,3.986-9.358,4.94l13.257,19.531h-7.152l-12.66-18.77h-1.394v18.77h-6.234V35.807
			L182.085,35.807z M188.319,41.323v15.905c9.192,0.191,13.789-2.472,13.789-7.989c0-1.934-0.535-3.516-1.608-4.747
			c-1.077-1.23-2.508-2.065-4.301-2.506C194.409,41.544,191.779,41.323,188.319,41.323z"/>
		<path id="path5990" fill="#7F6126" d="M220.149,35.807h9.17c5.183,0,9.362,1.218,12.538,3.654c3.177,2.436,4.767,5.6,4.767,9.492
			c0,3.918-1.679,7.201-5.035,9.852c-3.357,2.65-8.448,3.94-15.279,3.87v18.769h-6.16V35.807L220.149,35.807z M226.31,41.252v15.976
			c4.681-0.048,8.148-0.71,10.406-1.988c2.257-1.278,3.386-3.324,3.386-6.144c0-2.125-0.855-3.964-2.563-5.517
			C235.834,42.027,232.09,41.252,226.31,41.252z"/>
		<path id="path5992" fill="#7F6126" d="M293.139,37.384v7.056c-4.921-2.412-9.447-3.619-13.578-3.619
			c-5.301,0-9.768,1.713-13.397,5.135c-3.63,3.425-5.444,7.629-5.444,12.616c0,5.08,1.855,9.321,5.569,12.721
			c3.715,3.399,8.366,5.101,13.955,5.101c4.058,0,8.354-1.278,12.896-3.833v7.128c-4.132,2.197-8.609,3.295-13.435,3.295
			c-7.067,0-13.109-2.392-18.123-7.176c-5.02-4.785-7.524-10.554-7.524-17.308c0-6.634,2.464-12.313,7.399-17.039
			c4.928-4.725,10.871-7.088,17.82-7.088C283.74,34.374,288.361,35.376,293.139,37.384z"/>
		<path id="path5994" fill="#7F6126" d="M297.636,35.878h6.576L318.547,68.2l14.438-32.322h6.633l-21.151,47.106L297.636,35.878z"/>
		<path id="path5996" fill="#7F6126" d="M373.66,28.248h4.058L348.013,97.6h-4.253L373.66,28.248z"/>
		<path id="path5998" fill="#7F6126" d="M416.048,34.052l14.688,33.687l13.785-31.861h6.437l-20.222,46.998l-14.682-33.762
			l-14.691,33.763l-20.256-46.998h6.434l13.889,32.22L416.048,34.052z"/>
	</g>
	<g id="g6000">
		<path id="path6069_13_" fill="#7F6126" d="M140.963,26.659c3.072-1.724,6.326-3.194,9.746-4.047
			c0.575-0.192,1.088,0.362,1.136,0.9c-0.276,0.812-0.826,1.494-1.413,2.104c-2.298,2.4-5.009,4.371-7.872,6.043
			c-8.606,5.904-16.769,12.418-25.032,18.786c-1.813,1.379-3.567,2.845-5.454,4.121c1.415-1.842,3.051-3.506,4.542-5.293
			c4.102-4.631,8.145-9.337,12.686-13.554C132.94,32.393,136.909,29.451,140.963,26.659z"/>
		<path id="path6071_13_" fill="#7F6126" d="M140.886,34.259c1.346-0.8,2.885-1.737,4.511-1.339
			c0.716,0.367,0.336,1.293-0.136,1.698c-1.501,1.315-2.962,2.708-4.736,3.648c-0.989,0.642-2.298,1.417-2.361,2.721
			c0.826,0.892,2.176,1.02,3.334,0.993c1.413,0.059,2.914-0.217,4.253,0.389c0.716,0.292,1.295,1.044,1.092,1.849
			c-0.357,1.276-1.435,2.134-2.36,3.001c-1.299,1.144-2.545,2.35-3.811,3.537c-0.981,0.933-2.14,1.739-2.771,2.979
			c0.675,0.93,1.959,0.86,2.826,1.496c0.59,0.511,0.479,1.409,0.144,2.032c-0.583,1.119-1.487,2.031-2.125,3.12
			c2.01-0.724,4.062-1.356,6.183-1.647c1.121-0.199,2.117,0.954,1.899,2.029c-0.166,0.658-0.505,1.258-0.915,1.793
			c-3.645,4.469-7.344,8.896-10.952,13.391c0.273,0.432,0.679,0.837,0.708,1.38c0.203,1.583-0.801,3.016-1.918,4.031
			c-1.557,1.325-3.069,2.706-4.622,4.033c-1.343,1.099-2.859,2.032-3.936,3.419c-1.417,1.866-1.896,4.259-3.338,6.112
			c-2.538,3.659-6.09,6.463-9.862,8.768c-1.483,0.83-2.686,2.047-4.058,3.029c2.247-2.033,4.45-4.121,6.54-6.321
			c3.351-3.48,6.059-7.521,8.567-11.638c1.719-3.055,4.973-4.639,7.337-7.094c1.144-1.187,2.531-2.248,3.125-3.846
			c-0.513-0.226-1.11-0.325-1.501-0.752c-0.276-0.458-0.169-1.083,0.177-1.477c3.139-3.949,6.282-7.893,9.417-11.84
			c0.535-0.676,1.077-1.348,1.542-2.076c-2.398,0.654-4.714,1.561-7.083,2.3c-0.579,0.167-1.288,0.232-1.737-0.25
			c-0.332-0.861,0.044-1.777,0.546-2.483c1.088-1.582,2.438-2.962,3.53-4.542c-1.007-0.515-2.365-1.028-2.56-2.293
			c-0.306-2.005,1.339-3.533,2.696-4.739c2.143-1.932,4.795-3.374,6.448-5.797c-2.213-0.653-4.663-0.057-6.791-1.077
			c-0.753-0.376-1.686-1.003-1.546-1.973c0.155-1.656,1.727-2.595,2.98-3.434c1.918-1.039,3.877-2.139,5.36-3.779
			C143.567,33.415,142.25,34.037,140.886,34.259L140.886,34.259z"/>
		<path id="path6073_13_" fill="#7F6126" d="M118.72,44.033c0.911-0.698,1.771-1.485,2.814-1.979
			c-0.934,1.101-2.055,2.015-3.058,3.041c-6.61,6.554-12.715,13.752-17.132,21.986c2.558-3.381,5.253-6.757,8.722-9.25
			c-0.4,1.295-1.084,2.474-1.681,3.68c-1.733,3.406-3.611,6.737-5.367,10.129c1.603-1.318,2.91-3.058,4.779-4.007
			c-0.255,1.058-0.845,1.981-1.4,2.902c-0.828,1.342-1.675,2.671-2.654,3.91c-2.136,2.762-4.264,5.532-6.407,8.288
			c-0.62,0.813-1.009,1.764-1.479,2.664c-0.634,1.307-1.538,2.462-2.191,3.756c0.315-0.244,0.631-0.492,0.902-0.785
			c2.575-2.854,4.997-5.848,7.601-8.67c2.173-1.896,4.146-4.065,6.562-5.657c-0.258,1.13-0.928,2.099-1.57,3.046
			c-2.077,2.912-4.576,5.499-6.599,8.449c2.018-1.445,4.107-2.896,6.557-3.497c-2.189,2.738-5.214,4.601-7.953,6.724
			c-1.885,1.493-4.19,2.367-6.017,3.941c2.359-0.845,4.685-1.782,7.033-2.661c1.452-0.536,2.82-1.583,4.447-1.412
			c-0.553,0.728-1.367,1.167-2.126,1.632c-2.562,1.522-5.221,2.868-7.874,4.223c-0.895,0.469-1.843,0.852-2.654,1.468
			c2.833,0.251,5.661-0.85,8.486-0.268c-1.406,0.769-3.077,0.776-4.621,1.086c-1.33,0.28-2.698,0.325-4.019,0.655
			c2.663,0.636,5.395,0.983,8.03,1.732c-3.325,0.717-6.75,0.406-10.12,0.498c1.789,2.955,4.934,4.557,7.566,6.628
			c2.538,1.682,4.192,4.434,4.932,7.352c0.286,1.572-0.245,3.263-1.359,4.405c-0.24,0.254-0.885,0.221-0.961-0.174
			c-0.75-2.231-0.173-4.685-0.974-6.909c-0.472-1.686-1.795-2.913-2.971-4.131c-1.978-2.051-4.242-3.807-6.179-5.898
			c-0.384-0.406-0.662-0.9-0.948-1.371c0.238-0.252,0.448-0.61,0.832-0.64c1.112-0.173,2.246-0.052,3.366-0.187
			c-0.861-0.242-1.951-0.135-2.606-0.821c-0.214-0.594-0.697-1.201-0.533-1.855c0.339-0.575,0.918-0.938,1.446-1.318
			c-0.797,0.098-1.531-0.091-1.928-0.839c-1.569,1.247-3.56,2.409-5.631,1.826c-2.86,1.033-5.959,0.845-8.925,0.48
			c-1.689-0.163-3.456-0.188-5.042,0.503c-1.658,0.725-3.32,1.706-4.338,3.246c-0.873,1.232-0.767,3.145,0.434,4.122
			c1.254,1.057,3.028,0.94,4.541,0.671c1.175-0.055,2.708-0.398,3.534,0.691c1.957,2.245,3.842,4.55,5.95,6.655
			c2.335,2.453,4.779,4.865,7.708,6.608c0.614-0.479,1.35-0.752,2.14-0.693c3.01-0.29,5.727,1.401,8.091,3.058
			c-2.498,0.203-4.829-1.208-7.33-0.841c1.881,0.955,4.714,2.451,8.633,3.303c0.537,0.116,4.497,0.227,5.157,0.321
			c-6.688,1.216-11.946-2.053-14.338-2.694c-0.31,0.531-0.478,1.241-1.053,1.555c-0.883,0.29-1.826,0.094-2.728,0.046
			c0.024-1.092,0.315-2.15,0.682-3.174c-0.292-0.194-0.583-0.382-0.874-0.566c-2.14-1.395-4.141-3.01-5.97-4.792
			c-2.007-2.07-3.984-4.172-5.851-6.367c-0.5-0.542-0.959-1.151-1.604-1.527c-1.175-0.249-2.375,0.037-3.558,0.114
			c-1.055,0.104-2.103-0.048-3.136-0.24c-1.171-0.03-1.75,1.188-2.663,1.711c-0.278-1.28,0.791-2.488,0.503-3.746
			c-0.956-1.544-0.856-3.575,0.076-5.104c1.12-1.95,3.152-3.132,5.137-4.05c3.095-1.423,6.553-0.508,9.815-0.555
			c1.922-0.04,4.082-0.245,5.526-1.658c1.31-1.322,2.473-2.78,3.759-4.123c0.5-0.624,1.162-1.149,1.478-1.902
			c1.82-4.947,3.711-9.884,6.094-14.593c0.69-1.26,1.335-2.544,1.925-3.854c0.011-0.019,0.03-0.056,0.041-0.073
			c0.863-1.275,1.627-2.61,2.448-3.913c0.833-1.161,1.682-2.313,2.348-3.578C106.903,54.366,112.599,48.877,118.72,44.033
			L118.72,44.033z"/>
		<path id="path6075_13_" fill="#7F6126" d="M125.869,45.162c1.667-0.805,3.383-1.875,5.293-1.803
			c-0.055,0.956-0.845,1.572-1.472,2.186c-1.571,1.468-3.526,2.401-5.216,3.708c-4.674,3.343-9.102,7.01-13.745,10.391
			c1.874-2.144,3.718-4.316,5.661-6.398C119.133,50.109,122.383,47.432,125.869,45.162L125.869,45.162z"/>
		<path id="path6077_13_" fill="#7F6126" d="M41.594,60.608c11.14-9.881,25.77-15.575,40.599-16.358
			c1.916-0.198,3.847-0.106,5.772-0.121c2.02-0.022,4.017,0.407,5.934,1.023c0.721,0.222,1.393,0.58,2.012,1.011
			c-1.328,0.238-2.674,0.1-4.01,0.113c-15.539-0.033-31.1,5.524-42.906,15.668c-1.691,1.634-3.358,3.297-4.994,4.985
			c-9.672,10.362-15.428,24.452-15.185,38.669c-0.068,5.515,0.979,11,2.604,16.252c0.889,2.537,1.802,5.085,3.069,7.462
			c2.407,4.659,5.242,9.155,8.866,12.974c2.844,3.137,5.867,6.156,9.349,8.591c1.365,0.992,2.766,1.931,4.201,2.82
			c4.578,2.875,9.565,5.104,14.764,6.586c5.985,1.566,12.241,2.103,18.413,1.7c15.782-0.874,31.253-7.518,42.485-18.69
			c2.45-0.225-0.203,0,8.691-0.273c-0.343,0.863-2.726,3.269-3.375,3.875c-7.964,7.387-17.879,12.598-28.396,15.248
			c-11.454,2.939-23.592,2.752-35.086,0.125c-9.989-2.223-19.703-6.115-28.025-12.14c-4.836-3.477-9.172-7.669-12.826-12.375
			c-8.512-10.945-12.972-25.086-11.69-38.932c0.994-12.713,6.679-24.917,15.414-34.165C38.565,63.155,40.03,61.821,41.594,60.608
			L41.594,60.608z"/>
		<path id="path6079_13_" fill="#7F6126" d="M97.336,61.625c1.066,1.077,1.833,1.789,2.709,2.721
			c-0.823,1.302-1.252,2.148-2.45,3.912C97.589,66.043,97.475,63.9,97.336,61.625L97.336,61.625z"/>
		<path id="path6081_13_" fill="#7F6126" d="M97.558,68.33c0.009-0.019,0.03-0.055,0.039-0.072
			C97.587,68.276,97.567,68.313,97.558,68.33z"/>
		<path id="path6083_13_" fill="#7F6126" d="M97.558,68.33c-0.592,1.311-1.236,2.597-1.925,3.855
			c-1.518-0.042-2.335-0.215-4.536-0.402C93.288,70.666,95.608,69.397,97.558,68.33z"/>
		<path id="path6085_13_" fill="#7F6126" d="M154.862,68.943c1.181-0.394,2.431-0.891,3.696-0.601
			c0.118,1.079-0.76,1.833-1.439,2.531c-1.652,1.528-3.445,2.931-5.43,4.007c-2.228,1.352-4.353,2.865-6.551,4.266
			c-1.918,1.486-3.961,2.804-5.821,4.358c2.176-0.644,4.364-1.821,6.703-1.32c-1.8,2.466-4.973,3.057-7.451,4.567
			c-5.15,2.591-10.133,5.498-15.242,8.157c1.45-1.479,3.235-2.587,4.688-4.065c3.206-3.437,6.319-6.972,9.69-10.253
			c3.574-3.491,7.617-6.464,11.786-9.206C151.185,70.383,153.021,69.636,154.862,68.943L154.862,68.943z"/>
		<path id="path6087_13_" fill="#7F6126" d="M72.843,76.739c2.045,1.903,2.554,2.628,4.127,3.933
			c1.761-1.154,2.896-1.993,4.668-3.401c-0.586,1.963-1.092,3.586-1.615,6.042c1.119,1.202,1.743,2.021,3.556,3.778
			c-2.375,0.071-3.508,0.112-5.183,0.277c-0.793,1.793-1.371,3.637-2.169,5.459c-0.469-1.782-0.804-3.637-1.332-5.851
			c-2.036-0.538-3.563-0.715-5.308-1.149c1.462-0.955,2.934-1.898,4.416-2.832C73.616,80.652,73.428,79.741,72.843,76.739
			L72.843,76.739z"/>
		<path id="path6089_13_" fill="#7F6126" d="M139.318,83.506c1.859-1.554,3.903-2.874,5.817-4.358
			c0.933,0.929,1.866,1.908,2.419,3.125c0.616,1.289,1.398,2.504,1.885,3.852c2.11,5.654,3.272,11.653,3.464,17.685
			c0.011,2.995,0.107,5.6-0.48,8.975c-6.023-6.478-13.486-11.553-20.812-14.441c0.505-0.81,0.539-1.778,0.568-2.704
			c-0.022-0.445,0.413-0.69,0.705-0.946c1.73-1.317,3.504-2.615,4.939-4.263c0.387-0.462,0.752-0.969,0.929-1.551
			c-0.003-0.457-0.306-0.838-0.483-1.233c-0.07-0.122-0.196-0.362-0.262-0.483c0.14-0.102,0.417-0.307,0.557-0.406
			c2.482-1.51,5.651-2.101,7.451-4.566C143.682,81.686,141.494,82.863,139.318,83.506L139.318,83.506z"/>
		<path id="path6091_13_" fill="#7F6126" d="M45.188,92.129c1.584-2.77,1.998-3.702,3.713-7.324c0.378,3.485,0.496,4.87,0.896,7.157
			c2.737-0.031,5.027-0.134,7.665-0.306c-2.346,1.714-4.526,3.241-6.944,4.912c0.255,2.352,0.456,3.706,0.882,6.398
			c-2.337-1.322-3.648-2.154-5.428-3.303c-2.312,1.276-4.129,2.486-6.717,4.175c1.543-2.947,2.464-4.53,3.508-6.887
			c-1.551-1.623-2.935-2.793-4.722-4.62C40.485,92.332,42.818,92.166,45.188,92.129z"/>
		<path id="path6093_13_" fill="#7F6126" d="M138.271,87.642c0.177,0.397,0.476,0.778,0.483,1.233
			c-0.177,0.583-0.542,1.089-0.929,1.552c-1.435,1.647-3.209,2.945-4.939,4.263c-0.292,0.259-0.727,0.501-0.705,0.945
			c-0.029,0.93-0.062,1.898-0.568,2.704c-2.121,3.01-5.685,4.43-9.056,5.522c-2.619,0.839-5.238,1.695-7.844,2.567
			c-1.533,0.501-3.047,1.147-4.683,1.199c0.712-1.129,1.994-1.667,3.139-2.233c4.393-1.998,8.787-4.002,13.191-5.978
			c1.077-0.493,1.97-1.293,2.848-2.075c-0.476-0.319-1.32-0.456-1.306-1.169c-0.17-0.865,0.752-1.304,1.383-1.633
			c2.501-1.167,4.91-2.559,7.086-4.256C137.16,89.537,138.259,88.86,138.271,87.642L138.271,87.642z"/>
		<path id="path6097_13_" fill="#7F6126" d="M114.712,106.432c2.606-0.874,5.225-1.73,7.844-2.567
			c0.572,0.41,1.291,0.439,1.955,0.587c7.079,1.435,13.397,5.234,19.001,9.661c1.158,0.942,2.419,1.769,3.467,2.844
			c1.232,1.262,3.408,3.316,4.297,4.869c-0.911,4.097-1.446,5.441-3.49,10.462c-4.688-5.939-10.517-10.781-17.621-13.154
			c-5.135-1.479-8.953-1.243-13.401-0.97c-1.107,0.146-2.225,0.23-3.298,0.541c-1.169-1.278-2.411-2.488-3.713-3.628
			c-0.515-0.461-1.13-0.786-1.789-0.981l-0.16-0.055c-0.07-1.402-1.027-2.567-1.173-3.962c1.068-0.881,2.099-1.94,3.397-2.449
			C111.665,107.578,113.18,106.932,114.712,106.432L114.712,106.432L114.712,106.432z"/>
		<path id="path6099_13_" fill="#7F6126" d="M28.816,105.599c2.379,2.516,5.078,4.777,8.154,6.395
			c3.198,1.581,6.726,2.61,10.321,2.518c4.926,0.23,9.69-1.413,14.091-3.475c1.616-0.673,3.1-1.608,4.609-2.482
			c1.062-0.627,2.28-1.096,3.051-2.106c1.182-0.082,2.385-0.365,3.56-0.116c0.644,0.374,1.104,0.985,1.603,1.527
			c1.869,2.197,3.846,4.295,5.853,6.367c-0.495,0.568-1.074,1.055-1.681,1.503c-7.437,5.684-15.171,11.288-24.063,14.458
			c-5.699,2.068-12.123,2.418-17.863,0.297c-0.703-0.289-1.512-0.507-1.96-1.167c-1.267-2.377-2.182-4.928-3.071-7.462
			C29.795,116.599,28.748,111.113,28.816,105.599L28.816,105.599z"/>
		<path id="path6103_13_" fill="#7F6126" d="M107.965,114.09c0.659,0.195,1.276,0.523,1.789,0.985
			c1.304,1.136,2.543,2.35,3.715,3.626c2.958,3.287,5.454,6.953,8.379,10.27c2.283,2.534,4.814,4.847,7.591,6.831
			c1.073,0.823,2.283,1.494,3.22,2.486c-3.737,0.392-7.466-0.949-10.428-3.187c1.317,1.492,2.759,2.877,4.283,4.16
			c0.38,0.325,0.671,0.732,0.959,1.142c-3.785-0.098-7.418-1.989-9.783-4.926c-3.82-4.57-5.539-10.388-7.866-15.77
			c-0.507-1.328-1.276-2.542-1.743-3.888c0.78,0.579,1.42,1.315,2.119,1.984C109.57,116.502,108.692,115.341,107.965,114.09z"/>
		<path id="path6105_13_" fill="#7F6126" d="M105.986,115.555c0.605,1.311,0.795,2.757,1.236,4.122
			c1.772,6.285,5.439,11.802,9.25,17.018c0.813,1.133,1.26,2.536,1.068,3.933c-0.557-0.07-1.123-0.177-1.553-0.555
			c-1.819-1.218-2.724-3.281-3.831-5.085C108.703,129.052,107.032,122.285,105.986,115.555L105.986,115.555z"/>
		<path id="path6107_13_" fill="#7F6126" d="M86.027,119.017c0.291,0.186,0.583,0.374,0.874,0.568
			c-0.367,1.023-0.658,2.081-0.681,3.174c0.898,0.048,1.843,0.247,2.726-0.044c0.574-0.313,0.741-1.023,1.053-1.555
			c3.012,0.714,6.691,2.958,11.086,2.934c-3.016,0.874-5.489,2.883-8.458,5.091c-8.439,6.029-16.632,12.8-25.27,18.56
			c-3.368,2.171-6.808,4.259-10.45,5.952c-1.435-0.888-2.836-1.824-4.202-2.818c-3.482-2.435-6.505-5.456-9.349-8.591
			c1.962-0.498,4.026-0.478,5.963-1.118c6.43-1.582,12.282-4.836,17.813-8.379c5.242-3.406,10.135-7.306,15.143-11.042
			C83.537,120.857,84.702,119.821,86.027,119.017L86.027,119.017z"/>
		<path id="path6109_13_" fill="#7F6126" d="M118.635,123.718c3.493,2.047,6.875,4.298,10.513,6.09
			c1.11,0.539,2.221,1.181,2.97,2.188c-1.191,0.313-2.361-0.236-3.453-0.64C124.843,129.522,121.623,126.676,118.635,123.718
			L118.635,123.718z"/>
		<path id="path6671_13_" fill="#7F6126" d="M68.642,100.903c0,0.398-0.327,0.723-0.725,0.723c-0.4,0-0.725-0.325-0.725-0.723
			c0-0.402,0.325-0.727,0.725-0.727c0.335,0,0.629,0.232,0.704,0.561l-0.704,0.166H68.642z"/>
	</g>
	<g id="g6118">
		<path id="path6120" fill="#ECB739" d="M182.085,34.886h9.886c4.921,0,8.927,1.223,12.018,3.671c3.095,2.446,4.64,5.579,4.64,9.4
			c0,3.056-1,5.753-3.002,8.095c-2,2.339-5.12,3.987-9.358,4.94l13.257,19.531h-7.152l-12.66-18.77h-1.394v18.77h-6.234V34.886
			L182.085,34.886z M188.319,40.403v15.905c9.192,0.192,13.789-2.471,13.789-7.989c0-1.935-0.535-3.515-1.608-4.746
			c-1.077-1.231-2.508-2.065-4.301-2.507C194.409,40.624,191.779,40.403,188.319,40.403z"/>
		<path id="path6122" fill="#ECB739" d="M220.149,34.886h9.17c5.183,0,9.362,1.217,12.538,3.654
			c3.177,2.437,4.767,5.601,4.767,9.492c0,3.918-1.679,7.2-5.035,9.853c-3.357,2.649-8.448,3.939-15.279,3.869v18.769h-6.16V34.886
			L220.149,34.886z M226.31,40.331v15.977c4.681-0.048,8.148-0.71,10.406-1.988c2.257-1.277,3.386-3.324,3.386-6.143
			c0-2.126-0.855-3.965-2.563-5.518C235.834,41.106,232.09,40.331,226.31,40.331z"/>
		<path id="path6124" fill="#ECB739" d="M293.139,36.463v7.057c-4.921-2.413-9.447-3.619-13.578-3.619
			c-5.301,0-9.768,1.712-13.397,5.135c-3.63,3.424-5.444,7.628-5.444,12.615c0,5.081,1.855,9.321,5.569,12.721
			c3.715,3.399,8.366,5.101,13.955,5.101c4.058,0,8.354-1.278,12.896-3.833v7.128c-4.132,2.197-8.609,3.295-13.435,3.295
			c-7.067,0-13.109-2.392-18.123-7.176c-5.02-4.784-7.524-10.554-7.524-17.308c0-6.634,2.464-12.313,7.399-17.039
			c4.928-4.726,10.871-7.088,17.82-7.088C283.74,33.453,288.361,34.456,293.139,36.463z"/>
		<path id="path6126" fill="#ECB739" d="M297.636,34.958h6.576l14.335,32.322l14.438-32.322h6.633l-21.151,47.106L297.636,34.958z"
			/>
		<path id="path6128" fill="#ECB739" d="M373.66,27.328h4.058l-29.705,69.351h-4.253L373.66,27.328z"/>
		<path id="path6130" fill="#ECB739" d="M416.048,33.131l14.688,33.687l13.785-31.86h6.437l-20.222,46.997l-14.682-33.761
			l-14.691,33.762l-20.256-46.998h6.434l13.889,32.221L416.048,33.131z"/>
	</g>
	<g id="g6132">
		<path id="path6069_12_" fill="#ECB739" d="M140.963,25.738c3.072-1.724,6.326-3.193,9.746-4.047
			c0.575-0.192,1.088,0.363,1.136,0.9c-0.276,0.812-0.826,1.494-1.413,2.104c-2.298,2.4-5.009,4.371-7.872,6.043
			c-8.606,5.904-16.769,12.418-25.032,18.786c-1.813,1.379-3.567,2.845-5.454,4.121c1.415-1.842,3.051-3.506,4.542-5.293
			c4.102-4.631,8.145-9.337,12.686-13.554C132.94,31.472,136.909,28.531,140.963,25.738z"/>
		<path id="path6071_12_" fill="#ECB739" d="M140.886,33.339c1.346-0.8,2.885-1.737,4.511-1.339
			c0.716,0.367,0.336,1.293-0.136,1.698c-1.501,1.315-2.962,2.708-4.736,3.648c-0.989,0.642-2.298,1.417-2.361,2.721
			c0.826,0.893,2.176,1.021,3.334,0.994c1.413,0.059,2.914-0.218,4.253,0.389c0.716,0.291,1.295,1.043,1.092,1.849
			c-0.357,1.276-1.435,2.134-2.36,3.002c-1.299,1.143-2.545,2.349-3.811,3.536c-0.981,0.933-2.14,1.74-2.771,2.979
			c0.675,0.93,1.959,0.86,2.826,1.496c0.59,0.511,0.479,1.409,0.144,2.032c-0.583,1.119-1.487,2.031-2.125,3.12
			c2.01-0.724,4.062-1.356,6.183-1.647c1.121-0.199,2.117,0.954,1.899,2.029c-0.166,0.657-0.505,1.258-0.915,1.793
			c-3.645,4.469-7.344,8.896-10.952,13.391c0.273,0.433,0.679,0.838,0.708,1.38c0.203,1.583-0.801,3.017-1.918,4.031
			c-1.557,1.325-3.069,2.706-4.622,4.033c-1.343,1.099-2.859,2.032-3.936,3.419c-1.417,1.866-1.896,4.259-3.338,6.112
			c-2.538,3.661-6.09,6.463-9.862,8.77c-1.483,0.826-2.686,2.043-4.058,3.028c2.247-2.032,4.45-4.124,6.54-6.322
			c3.351-3.482,6.059-7.521,8.567-11.637c1.719-3.055,4.973-4.64,7.337-7.096c1.144-1.186,2.531-2.247,3.125-3.844
			c-0.513-0.227-1.11-0.326-1.501-0.753c-0.276-0.458-0.169-1.084,0.177-1.476c3.139-3.949,6.282-7.893,9.417-11.84
			c0.535-0.676,1.077-1.348,1.542-2.076c-2.398,0.654-4.714,1.562-7.083,2.3c-0.579,0.167-1.288,0.232-1.737-0.25
			c-0.332-0.861,0.044-1.777,0.546-2.483c1.088-1.583,2.438-2.963,3.53-4.543c-1.007-0.515-2.365-1.028-2.56-2.293
			c-0.306-2.004,1.339-3.533,2.696-4.739c2.143-1.931,4.795-3.373,6.448-5.797c-2.213-0.653-4.663-0.057-6.791-1.076
			c-0.753-0.377-1.686-1.004-1.546-1.973c0.155-1.656,1.727-2.595,2.98-3.435c1.918-1.039,3.877-2.139,5.36-3.779
			C143.567,32.494,142.25,33.117,140.886,33.339L140.886,33.339z"/>
		<path id="path6073_12_" fill="#ECB739" d="M118.72,43.113c0.911-0.698,1.771-1.486,2.814-1.979c-0.934,1.1-2.055,2.015-3.058,3.04
			c-6.61,6.554-12.715,13.752-17.132,21.986c2.558-3.381,5.253-6.757,8.722-9.25c-0.4,1.294-1.084,2.473-1.681,3.679
			c-1.733,3.406-3.611,6.737-5.367,10.129c1.603-1.318,2.91-3.058,4.779-4.007c-0.255,1.058-0.845,1.982-1.4,2.903
			c-0.828,1.341-1.675,2.67-2.654,3.909c-2.136,2.762-4.264,5.532-6.407,8.288c-0.62,0.812-1.009,1.764-1.479,2.664
			c-0.634,1.307-1.538,2.462-2.191,3.757c0.315-0.245,0.631-0.491,0.902-0.787c2.575-2.852,4.997-5.846,7.601-8.669
			c2.173-1.896,4.146-4.064,6.562-5.657c-0.258,1.131-0.928,2.099-1.57,3.046c-2.077,2.912-4.576,5.499-6.599,8.45
			c2.018-1.446,4.107-2.896,6.557-3.498c-2.189,2.738-5.214,4.601-7.953,6.724c-1.885,1.493-4.19,2.367-6.017,3.941
			c2.359-0.845,4.685-1.781,7.033-2.661c1.452-0.536,2.82-1.583,4.447-1.412c-0.553,0.728-1.367,1.167-2.126,1.632
			c-2.562,1.522-5.221,2.868-7.874,4.223c-0.895,0.47-1.843,0.853-2.654,1.468c2.833,0.252,5.661-0.85,8.486-0.268
			c-1.406,0.769-3.077,0.778-4.621,1.086c-1.33,0.278-2.698,0.325-4.019,0.655c2.663,0.638,5.395,0.985,8.03,1.734
			c-3.325,0.715-6.75,0.404-10.12,0.494c1.789,2.957,4.934,4.559,7.566,6.63c2.538,1.68,4.192,4.436,4.932,7.35
			c0.286,1.575-0.245,3.264-1.359,4.404c-0.24,0.254-0.885,0.223-0.961-0.173c-0.75-2.228-0.173-4.681-0.974-6.907
			c-0.472-1.686-1.795-2.912-2.971-4.131c-1.978-2.051-4.242-3.807-6.179-5.9c-0.384-0.404-0.662-0.898-0.948-1.368
			c0.238-0.253,0.448-0.613,0.832-0.638c1.112-0.173,2.246-0.056,3.366-0.188c-0.861-0.24-1.951-0.133-2.606-0.821
			c-0.214-0.594-0.697-1.201-0.533-1.854c0.339-0.577,0.918-0.94,1.446-1.321c-0.797,0.099-1.531-0.09-1.928-0.837
			c-1.569,1.246-3.56,2.41-5.631,1.827c-2.86,1.029-5.959,0.845-8.925,0.479c-1.689-0.166-3.456-0.19-5.042,0.502
			c-1.658,0.725-3.32,1.706-4.338,3.246c-0.873,1.232-0.767,3.143,0.434,4.122c1.254,1.057,3.028,0.939,4.541,0.671
			c1.175-0.057,2.708-0.4,3.534,0.691c1.957,2.245,3.842,4.55,5.95,6.655c2.335,2.453,4.779,4.865,7.708,6.608
			c0.614-0.481,1.35-0.754,2.14-0.695c3.01-0.288,5.727,1.405,8.091,3.06c-2.498,0.203-4.829-1.208-7.33-0.843
			c1.881,0.958,4.714,2.453,8.633,3.305c0.537,0.118,4.497,0.227,5.157,0.321c-6.688,1.213-11.946-2.055-14.338-2.693
			c-0.31,0.531-0.478,1.24-1.053,1.553c-0.883,0.29-1.826,0.096-2.728,0.048c0.024-1.094,0.315-2.154,0.682-3.176
			c-0.292-0.192-0.583-0.382-0.874-0.566c-2.14-1.395-4.141-3.008-5.97-4.792c-2.007-2.071-3.984-4.17-5.851-6.365
			c-0.5-0.546-0.959-1.154-1.604-1.529c-1.175-0.249-2.375,0.035-3.558,0.116c-1.055,0.1-2.103-0.048-3.136-0.244
			c-1.171-0.026-1.75,1.191-2.663,1.715c-0.278-1.282,0.791-2.49,0.503-3.748c-0.956-1.542-0.856-3.575,0.076-5.105
			c1.12-1.948,3.152-3.132,5.137-4.047c3.095-1.423,6.553-0.509,9.815-0.555c1.922-0.041,4.082-0.246,5.526-1.659
			c1.31-1.322,2.473-2.779,3.759-4.123c0.5-0.624,1.162-1.149,1.478-1.902c1.82-4.947,3.711-9.885,6.094-14.593
			c0.69-1.26,1.335-2.544,1.925-3.854c0.011-0.019,0.03-0.056,0.041-0.073c0.863-1.275,1.627-2.61,2.448-3.913
			c0.833-1.161,1.682-2.313,2.348-3.578C106.903,53.445,112.599,47.958,118.72,43.113L118.72,43.113z"/>
		<path id="path6075_12_" fill="#ECB739" d="M125.869,44.243c1.667-0.805,3.383-1.875,5.293-1.804
			c-0.055,0.957-0.845,1.572-1.472,2.186c-1.571,1.468-3.526,2.401-5.216,3.708c-4.674,3.343-9.102,7.01-13.745,10.392
			c1.874-2.145,3.718-4.317,5.661-6.399C119.133,49.188,122.383,46.511,125.869,44.243L125.869,44.243z"/>
		<path id="path6077_12_" fill="#ECB739" d="M41.594,59.688c11.14-9.882,25.77-15.576,40.599-16.359
			c1.916-0.198,3.847-0.106,5.772-0.121c2.02-0.022,4.017,0.408,5.934,1.023c0.721,0.222,1.393,0.58,2.012,1.011
			c-1.328,0.238-2.674,0.1-4.01,0.114c-15.539-0.033-31.1,5.523-42.906,15.667c-1.691,1.635-3.358,3.297-4.994,4.985
			c-9.672,10.362-15.428,24.452-15.185,38.671c-0.068,5.513,0.979,11,2.604,16.25c0.889,2.536,1.802,5.085,3.069,7.463
			c2.407,4.66,5.242,9.157,8.866,12.975c2.844,3.136,5.867,6.155,9.349,8.592c1.365,0.99,2.766,1.929,4.201,2.817
			c4.578,2.876,9.565,5.105,14.764,6.589c5.985,1.563,12.241,2.099,18.413,1.7c15.782-0.878,31.253-7.521,42.485-18.691
			c2.45-0.225-0.203,0,8.691-0.274c-0.343,0.861-2.726,3.267-3.375,3.875c-7.964,7.389-17.879,12.597-28.396,15.246
			c-11.454,2.939-23.592,2.753-35.086,0.125c-9.989-2.221-19.703-6.116-28.025-12.136c-4.836-3.479-9.172-7.669-12.826-12.38
			c-8.512-10.942-12.972-25.083-11.69-38.931c0.994-12.711,6.679-24.916,15.414-34.164C38.565,62.235,40.03,60.901,41.594,59.688
			L41.594,59.688z"/>
		<path id="path6079_12_" fill="#ECB739" d="M97.336,60.706c1.066,1.076,1.833,1.788,2.709,2.72
			c-0.823,1.302-1.252,2.148-2.45,3.913C97.589,65.123,97.475,62.98,97.336,60.706L97.336,60.706z"/>
		<path id="path6081_12_" fill="#ECB739" d="M97.558,67.409c0.009-0.018,0.03-0.055,0.039-0.072
			C97.587,67.355,97.567,67.393,97.558,67.409z"/>
		<path id="path6083_12_" fill="#ECB739" d="M97.558,67.409c-0.592,1.31-1.236,2.597-1.925,3.855
			c-1.518-0.042-2.335-0.215-4.536-0.402C93.288,69.746,95.608,68.477,97.558,67.409z"/>
		<path id="path6085_12_" fill="#ECB739" d="M154.862,68.022c1.181-0.394,2.431-0.891,3.696-0.601
			c0.118,1.079-0.76,1.833-1.439,2.532c-1.652,1.527-3.445,2.93-5.43,4.006c-2.228,1.352-4.353,2.865-6.551,4.266
			c-1.918,1.486-3.961,2.804-5.821,4.358c2.176-0.644,4.364-1.82,6.703-1.319c-1.8,2.466-4.973,3.056-7.451,4.566
			c-5.15,2.591-10.133,5.498-15.242,8.157c1.45-1.479,3.235-2.587,4.688-4.065c3.206-3.438,6.319-6.972,9.69-10.253
			c3.574-3.49,7.617-6.463,11.786-9.205C151.185,69.463,153.021,68.716,154.862,68.022L154.862,68.022z"/>
		<path id="path6087_12_" fill="#ECB739" d="M72.843,75.818c2.045,1.902,2.554,2.628,4.127,3.933
			c1.761-1.154,2.896-1.993,4.668-3.401c-0.586,1.963-1.092,3.586-1.615,6.042c1.119,1.202,1.743,2.021,3.556,3.777
			c-2.375,0.072-3.508,0.113-5.183,0.279c-0.793,1.792-1.371,3.636-2.169,5.458c-0.469-1.781-0.804-3.638-1.332-5.85
			c-2.036-0.539-3.563-0.716-5.308-1.15c1.462-0.955,2.934-1.898,4.416-2.831C73.616,79.731,73.428,78.821,72.843,75.818
			L72.843,75.818z"/>
		<path id="path6089_12_" fill="#ECB739" d="M139.318,82.585c1.859-1.554,3.903-2.874,5.817-4.358
			c0.933,0.929,1.866,1.908,2.419,3.125c0.616,1.29,1.398,2.504,1.885,3.852c2.11,5.654,3.272,11.653,3.464,17.687
			c0.011,2.995,0.107,5.598-0.48,8.971c-6.023-6.478-13.486-11.551-20.812-14.438c0.505-0.812,0.539-1.782,0.568-2.707
			c-0.022-0.443,0.413-0.69,0.705-0.945c1.73-1.317,3.504-2.615,4.939-4.263c0.387-0.462,0.752-0.969,0.929-1.552
			c-0.003-0.456-0.306-0.837-0.483-1.232c-0.07-0.122-0.196-0.362-0.262-0.483c0.14-0.102,0.417-0.307,0.557-0.406
			c2.482-1.51,5.651-2.1,7.451-4.566C143.682,80.765,141.494,81.943,139.318,82.585L139.318,82.585z"/>
		<path id="path6091_12_" fill="#ECB739" d="M45.188,91.209c1.584-2.77,1.998-3.702,3.713-7.324c0.378,3.485,0.496,4.87,0.896,7.157
			c2.737-0.03,5.027-0.134,7.665-0.306c-2.346,1.714-4.526,3.241-6.944,4.911c0.255,2.354,0.456,3.707,0.882,6.4
			c-2.337-1.321-3.648-2.154-5.428-3.301c-2.312,1.272-4.129,2.484-6.717,4.172c1.543-2.945,2.464-4.53,3.508-6.883
			c-1.551-1.625-2.935-2.795-4.722-4.623C40.485,91.412,42.818,91.246,45.188,91.209z"/>
		<path id="path6093_12_" fill="#ECB739" d="M138.271,86.722c0.177,0.396,0.476,0.778,0.483,1.232
			c-0.177,0.583-0.542,1.089-0.929,1.552c-1.435,1.648-3.209,2.946-4.939,4.263c-0.292,0.258-0.727,0.502-0.705,0.946
			c-0.029,0.927-0.062,1.897-0.568,2.705c-2.121,3.006-5.685,4.426-9.056,5.522c-2.619,0.837-5.238,1.693-7.844,2.567
			c-1.533,0.498-3.047,1.145-4.683,1.195c0.712-1.127,1.994-1.664,3.139-2.231c4.393-2,8.787-4.002,13.191-5.978
			c1.077-0.493,1.97-1.293,2.848-2.075c-0.476-0.317-1.32-0.456-1.306-1.169c-0.17-0.866,0.752-1.305,1.383-1.633
			c2.501-1.166,4.91-2.558,7.086-4.256C137.16,88.617,138.259,87.939,138.271,86.722L138.271,86.722z"/>
		<path id="path6097_12_" fill="#ECB739" d="M114.712,105.51c2.606-0.873,5.225-1.727,7.844-2.566
			c0.572,0.41,1.291,0.438,1.955,0.587c7.079,1.433,13.397,5.236,19.001,9.661c1.158,0.942,2.419,1.769,3.467,2.846
			c1.232,1.262,3.408,3.314,4.297,4.869c-0.911,4.094-1.446,5.437-3.49,10.459c-4.688-5.94-10.517-10.78-17.621-13.152
			c-5.135-1.483-8.953-1.247-13.401-0.972c-1.107,0.146-2.225,0.23-3.298,0.541c-1.169-1.276-2.411-2.49-3.713-3.628
			c-0.515-0.463-1.13-0.788-1.789-0.983l-0.16-0.055c-0.07-1.398-1.027-2.565-1.173-3.958c1.068-0.883,2.099-1.94,3.397-2.453
			c1.636-0.048,3.15-0.693,4.683-1.191V105.51L114.712,105.51z"/>
		<path id="path6099_12_" fill="#ECB739" d="M28.816,104.68c2.379,2.514,5.078,4.773,8.154,6.393
			c3.198,1.583,6.726,2.608,10.321,2.516c4.926,0.232,9.69-1.413,14.091-3.471c1.616-0.675,3.1-1.608,4.609-2.486
			c1.062-0.627,2.28-1.092,3.051-2.106c1.182-0.078,2.385-0.363,3.56-0.114c0.644,0.376,1.104,0.985,1.603,1.527
			c1.869,2.195,3.846,4.297,5.853,6.367c-0.495,0.568-1.074,1.055-1.681,1.503c-7.437,5.685-15.171,11.287-24.063,14.458
			c-5.699,2.067-12.123,2.418-17.863,0.299c-0.703-0.291-1.512-0.509-1.96-1.169c-1.267-2.38-2.182-4.929-3.071-7.463
			C29.795,115.68,28.748,110.193,28.816,104.68L28.816,104.68z"/>
		<path id="path6103_12_" fill="#ECB739" d="M107.965,113.17c0.659,0.193,1.276,0.522,1.789,0.985
			c1.304,1.136,2.543,2.352,3.715,3.626c2.958,3.289,5.454,6.954,8.379,10.269c2.283,2.532,4.814,4.85,7.591,6.83
			c1.073,0.826,2.283,1.498,3.22,2.486c-3.737,0.395-7.466-0.948-10.428-3.184c1.317,1.49,2.759,2.875,4.283,4.159
			c0.38,0.324,0.671,0.732,0.959,1.142c-3.785-0.1-7.418-1.99-9.783-4.927c-3.82-4.571-5.539-10.385-7.866-15.767
			c-0.507-1.33-1.276-2.543-1.743-3.89c0.78,0.579,1.42,1.315,2.119,1.984C109.57,115.584,108.692,114.422,107.965,113.17z"/>
		<path id="path6105_12_" fill="#ECB739" d="M105.986,114.632c0.605,1.313,0.795,2.759,1.236,4.124
			c1.772,6.286,5.439,11.8,9.25,17.02c0.813,1.129,1.26,2.534,1.068,3.929c-0.557-0.068-1.123-0.178-1.553-0.554
			c-1.819-1.217-2.724-3.279-3.831-5.087C108.703,128.13,107.032,121.364,105.986,114.632L105.986,114.632z"/>
		<path id="path6107_12_" fill="#ECB739" d="M86.027,118.096c0.291,0.185,0.583,0.375,0.874,0.568
			c-0.367,1.022-0.658,2.081-0.681,3.172c0.898,0.05,1.843,0.247,2.726-0.044c0.574-0.313,0.741-1.021,1.053-1.553
			c3.012,0.712,6.691,2.958,11.086,2.935c-3.016,0.874-5.489,2.883-8.458,5.09c-8.439,6.029-16.632,12.801-25.27,18.561
			c-3.368,2.171-6.808,4.261-10.45,5.951c-1.435-0.887-2.836-1.823-4.202-2.815c-3.482-2.437-6.505-5.456-9.349-8.594
			c1.962-0.496,4.026-0.478,5.963-1.119c6.43-1.581,12.282-4.836,17.813-8.377c5.242-3.408,10.135-7.306,15.143-11.041
			C83.537,119.937,84.702,118.9,86.027,118.096L86.027,118.096z"/>
		<path id="path6109_12_" fill="#ECB739" d="M118.635,122.797c3.493,2.049,6.875,4.297,10.513,6.092
			c1.11,0.536,2.221,1.177,2.97,2.186c-1.191,0.313-2.361-0.238-3.453-0.641C124.843,128.602,121.623,125.758,118.635,122.797
			L118.635,122.797z"/>
		<path id="path6671_12_" fill="#ECB739" d="M68.642,99.98c0,0.398-0.327,0.723-0.725,0.723c-0.4,0-0.725-0.325-0.725-0.723
			c0-0.4,0.325-0.723,0.725-0.723c0.335,0,0.629,0.232,0.704,0.557l-0.704,0.166H68.642z"/>
	</g>
	<g id="g6252">
		<radialGradient id="path6254_1_" cx="195.8057" cy="58.625" r="18.8274" gradientUnits="userSpaceOnUse">
			<stop  offset="0" style="stop-color:#FFFACB"/>
			<stop  offset="0.1161" style="stop-color:#FAF1BA"/>
			<stop  offset="0.3456" style="stop-color:#EED98D"/>
			<stop  offset="0.3708" style="stop-color:#EDD688"/>
			<stop  offset="0.6854" style="stop-color:#EABA10"/>
			<stop  offset="1" style="stop-color:#C2912E"/>
		</radialGradient>
		<path id="path6254" fill="url(#path6254_1_)" d="M182.085,35.807h9.886c4.921,0,8.927,1.224,12.018,3.67
			c3.095,2.447,4.64,5.58,4.64,9.4c0,3.057-1,5.754-3.002,8.096c-2,2.339-5.12,3.986-9.358,4.94l13.257,19.531h-7.152l-12.66-18.77
			h-1.394v18.77h-6.234V35.807L182.085,35.807z M188.319,41.323v15.905c9.192,0.191,13.789-2.472,13.789-7.989
			c0-1.934-0.535-3.516-1.608-4.747c-1.077-1.23-2.508-2.065-4.301-2.506C194.409,41.544,191.779,41.323,188.319,41.323z"/>
		<radialGradient id="path6256_1_" cx="233.3867" cy="58.625" r="18.6532" gradientUnits="userSpaceOnUse">
			<stop  offset="0" style="stop-color:#FFFACB"/>
			<stop  offset="0.1161" style="stop-color:#FAF1BA"/>
			<stop  offset="0.3456" style="stop-color:#EED98D"/>
			<stop  offset="0.3708" style="stop-color:#EDD688"/>
			<stop  offset="0.6854" style="stop-color:#EABA10"/>
			<stop  offset="1" style="stop-color:#C2912E"/>
		</radialGradient>
		<path id="path6256" fill="url(#path6256_1_)" d="M220.149,35.807h9.17c5.183,0,9.362,1.218,12.538,3.654
			c3.177,2.436,4.767,5.6,4.767,9.492c0,3.918-1.679,7.201-5.035,9.852c-3.357,2.65-8.448,3.94-15.279,3.87v18.769h-6.16V35.807
			L220.149,35.807z M226.31,41.252v15.976c4.681-0.048,8.148-0.71,10.406-1.988c2.257-1.278,3.386-3.324,3.386-6.144
			c0-2.125-0.855-3.964-2.563-5.517C235.834,42.027,232.09,41.252,226.31,41.252z"/>
		<radialGradient id="path6258_1_" cx="273.5977" cy="58.6777" r="22.0521" gradientUnits="userSpaceOnUse">
			<stop  offset="0" style="stop-color:#FFFACB"/>
			<stop  offset="0.1161" style="stop-color:#FAF1BA"/>
			<stop  offset="0.3456" style="stop-color:#EED98D"/>
			<stop  offset="0.3708" style="stop-color:#EDD688"/>
			<stop  offset="0.6854" style="stop-color:#EABA10"/>
			<stop  offset="1" style="stop-color:#C2912E"/>
		</radialGradient>
		<path id="path6258" fill="url(#path6258_1_)" d="M293.139,37.384v7.056c-4.921-2.412-9.447-3.619-13.578-3.619
			c-5.301,0-9.768,1.713-13.397,5.135c-3.63,3.425-5.444,7.629-5.444,12.616c0,5.08,1.855,9.321,5.569,12.721
			c3.715,3.399,8.366,5.101,13.955,5.101c4.058,0,8.354-1.278,12.896-3.833v7.128c-4.132,2.197-8.609,3.295-13.435,3.295
			c-7.067,0-13.109-2.392-18.123-7.176c-5.02-4.785-7.524-10.554-7.524-17.308c0-6.634,2.464-12.313,7.399-17.039
			c4.928-4.725,10.871-7.088,17.82-7.088C283.74,34.374,288.361,35.376,293.139,37.384z"/>
		<radialGradient id="path6260_1_" cx="318.627" cy="59.4316" r="22.3086" gradientUnits="userSpaceOnUse">
			<stop  offset="0" style="stop-color:#FFFACB"/>
			<stop  offset="0.1161" style="stop-color:#FAF1BA"/>
			<stop  offset="0.3456" style="stop-color:#EED98D"/>
			<stop  offset="0.3708" style="stop-color:#EDD688"/>
			<stop  offset="0.6854" style="stop-color:#EABA10"/>
			<stop  offset="1" style="stop-color:#C2912E"/>
		</radialGradient>
		<path id="path6260" fill="url(#path6260_1_)" d="M297.636,35.878h6.576L318.547,68.2l14.438-32.322h6.633l-21.151,47.106
			L297.636,35.878z"/>
		<radialGradient id="path6262_1_" cx="360.7383" cy="62.9238" r="27.3012" gradientUnits="userSpaceOnUse">
			<stop  offset="0" style="stop-color:#FFFACB"/>
			<stop  offset="0.1161" style="stop-color:#FAF1BA"/>
			<stop  offset="0.3456" style="stop-color:#EED98D"/>
			<stop  offset="0.3708" style="stop-color:#EDD688"/>
			<stop  offset="0.6854" style="stop-color:#EABA10"/>
			<stop  offset="1" style="stop-color:#C2912E"/>
		</radialGradient>
		<path id="path6262" fill="url(#path6262_1_)" d="M373.66,28.248h4.058L348.013,97.6h-4.253L373.66,28.248z"/>
		<radialGradient id="path6264_1_" cx="416.0332" cy="58.4639" r="30.1305" gradientUnits="userSpaceOnUse">
			<stop  offset="0" style="stop-color:#FFFACB"/>
			<stop  offset="0.1161" style="stop-color:#FAF1BA"/>
			<stop  offset="0.3456" style="stop-color:#EED98D"/>
			<stop  offset="0.3708" style="stop-color:#EDD688"/>
			<stop  offset="0.6854" style="stop-color:#EABA10"/>
			<stop  offset="1" style="stop-color:#C2912E"/>
		</radialGradient>
		<path id="path6264" fill="url(#path6264_1_)" d="M416.048,34.052l14.688,33.687l13.785-31.861h6.437l-20.222,46.998
			l-14.682-33.762l-14.691,33.763l-20.256-46.998h6.434l13.889,32.22L416.048,34.052z"/>
	</g>
	<g id="g6266">
		<radialGradient id="path6069_1_" cx="131.96" cy="38.5688" r="18.0455" gradientUnits="userSpaceOnUse">
			<stop  offset="0" style="stop-color:#FFFACB"/>
			<stop  offset="0.1161" style="stop-color:#FAF1BA"/>
			<stop  offset="0.3456" style="stop-color:#EED98D"/>
			<stop  offset="0.3708" style="stop-color:#EDD688"/>
			<stop  offset="0.6854" style="stop-color:#EABA10"/>
			<stop  offset="1" style="stop-color:#C2912E"/>
		</radialGradient>
		<path id="path6069_11_" fill="url(#path6069_1_)" d="M140.963,26.659c3.072-1.724,6.326-3.194,9.746-4.047
			c0.575-0.192,1.088,0.362,1.136,0.9c-0.276,0.812-0.826,1.494-1.413,2.104c-2.298,2.4-5.009,4.371-7.872,6.043
			c-8.606,5.904-16.769,12.418-25.032,18.786c-1.813,1.379-3.567,2.845-5.454,4.121c1.415-1.842,3.051-3.506,4.542-5.293
			c4.102-4.631,8.145-9.337,12.686-13.554C132.94,32.393,136.909,29.451,140.963,26.659z"/>
		<radialGradient id="path6071_1_" cx="127.4102" cy="69.7729" r="29.5324" gradientUnits="userSpaceOnUse">
			<stop  offset="0" style="stop-color:#FFFACB"/>
			<stop  offset="0.1161" style="stop-color:#FAF1BA"/>
			<stop  offset="0.3456" style="stop-color:#EED98D"/>
			<stop  offset="0.3708" style="stop-color:#EDD688"/>
			<stop  offset="0.6854" style="stop-color:#EABA10"/>
			<stop  offset="1" style="stop-color:#C2912E"/>
		</radialGradient>
		<path id="path6071_11_" fill="url(#path6071_1_)" d="M140.886,34.259c1.346-0.8,2.885-1.737,4.511-1.339
			c0.716,0.367,0.336,1.293-0.136,1.698c-1.501,1.315-2.962,2.708-4.736,3.648c-0.989,0.642-2.298,1.417-2.361,2.721
			c0.826,0.892,2.176,1.02,3.334,0.993c1.413,0.059,2.914-0.217,4.253,0.389c0.716,0.292,1.295,1.044,1.092,1.849
			c-0.357,1.276-1.435,2.134-2.36,3.001c-1.299,1.144-2.545,2.35-3.811,3.537c-0.981,0.933-2.14,1.739-2.771,2.979
			c0.675,0.93,1.959,0.86,2.826,1.496c0.59,0.511,0.479,1.409,0.144,2.032c-0.583,1.119-1.487,2.031-2.125,3.12
			c2.01-0.724,4.062-1.356,6.183-1.647c1.121-0.199,2.117,0.954,1.899,2.029c-0.166,0.658-0.505,1.258-0.915,1.793
			c-3.645,4.469-7.344,8.896-10.952,13.391c0.273,0.432,0.679,0.837,0.708,1.38c0.203,1.583-0.801,3.016-1.918,4.031
			c-1.557,1.325-3.069,2.706-4.622,4.033c-1.343,1.099-2.859,2.032-3.936,3.419c-1.417,1.866-1.896,4.259-3.338,6.112
			c-2.538,3.659-6.09,6.463-9.862,8.768c-1.483,0.83-2.686,2.047-4.058,3.029c2.247-2.033,4.45-4.121,6.54-6.321
			c3.351-3.48,6.059-7.521,8.567-11.638c1.719-3.055,4.973-4.639,7.337-7.094c1.144-1.187,2.531-2.248,3.125-3.846
			c-0.513-0.226-1.11-0.325-1.501-0.752c-0.276-0.458-0.169-1.083,0.177-1.477c3.139-3.949,6.282-7.893,9.417-11.84
			c0.535-0.676,1.077-1.348,1.542-2.076c-2.398,0.654-4.714,1.561-7.083,2.3c-0.579,0.167-1.288,0.232-1.737-0.25
			c-0.332-0.861,0.044-1.777,0.546-2.483c1.088-1.582,2.438-2.962,3.53-4.542c-1.007-0.515-2.365-1.028-2.56-2.293
			c-0.306-2.005,1.339-3.533,2.696-4.739c2.143-1.932,4.795-3.374,6.448-5.797c-2.213-0.653-4.663-0.057-6.791-1.077
			c-0.753-0.376-1.686-1.003-1.546-1.973c0.155-1.656,1.727-2.595,2.98-3.434c1.918-1.039,3.877-2.139,5.36-3.779
			C143.567,33.415,142.25,34.037,140.886,34.259L140.886,34.259z"/>
		<radialGradient id="path6073_1_" cx="92.3047" cy="83.0859" r="35.6227" gradientUnits="userSpaceOnUse">
			<stop  offset="0" style="stop-color:#FFFACB"/>
			<stop  offset="0.1161" style="stop-color:#FAF1BA"/>
			<stop  offset="0.3456" style="stop-color:#EED98D"/>
			<stop  offset="0.3708" style="stop-color:#EDD688"/>
			<stop  offset="0.6854" style="stop-color:#EABA10"/>
			<stop  offset="1" style="stop-color:#C2912E"/>
		</radialGradient>
		<path id="path6073_11_" fill="url(#path6073_1_)" d="M118.72,44.033c0.911-0.698,1.771-1.485,2.814-1.979
			c-0.934,1.101-2.055,2.015-3.058,3.041c-6.61,6.554-12.715,13.752-17.132,21.986c2.558-3.381,5.253-6.757,8.722-9.25
			c-0.4,1.295-1.084,2.474-1.681,3.68c-1.733,3.406-3.611,6.737-5.367,10.129c1.603-1.318,2.91-3.058,4.779-4.007
			c-0.255,1.058-0.845,1.981-1.4,2.902c-0.828,1.342-1.675,2.671-2.654,3.91c-2.136,2.762-4.264,5.532-6.407,8.288
			c-0.62,0.813-1.009,1.764-1.479,2.664c-0.634,1.307-1.538,2.462-2.191,3.756c0.315-0.244,0.631-0.492,0.902-0.785
			c2.575-2.854,4.997-5.848,7.601-8.67c2.173-1.896,4.146-4.065,6.562-5.657c-0.258,1.13-0.928,2.099-1.57,3.046
			c-2.077,2.912-4.576,5.499-6.599,8.449c2.018-1.445,4.107-2.896,6.557-3.497c-2.189,2.738-5.214,4.601-7.953,6.724
			c-1.885,1.493-4.19,2.367-6.017,3.941c2.359-0.845,4.685-1.782,7.033-2.661c1.452-0.536,2.82-1.583,4.447-1.412
			c-0.553,0.728-1.367,1.167-2.126,1.632c-2.562,1.522-5.221,2.868-7.874,4.223c-0.895,0.469-1.843,0.852-2.654,1.468
			c2.833,0.251,5.661-0.85,8.486-0.268c-1.406,0.769-3.077,0.776-4.621,1.086c-1.33,0.28-2.698,0.325-4.019,0.655
			c2.663,0.636,5.395,0.983,8.03,1.732c-3.325,0.717-6.75,0.406-10.12,0.498c1.789,2.955,4.934,4.557,7.566,6.628
			c2.538,1.682,4.192,4.434,4.932,7.352c0.286,1.572-0.245,3.263-1.359,4.405c-0.24,0.254-0.885,0.221-0.961-0.174
			c-0.75-2.231-0.173-4.685-0.974-6.909c-0.472-1.686-1.795-2.913-2.971-4.131c-1.978-2.051-4.242-3.807-6.179-5.898
			c-0.384-0.406-0.662-0.9-0.948-1.371c0.238-0.252,0.448-0.61,0.832-0.64c1.112-0.173,2.246-0.052,3.366-0.187
			c-0.861-0.242-1.951-0.135-2.606-0.821c-0.214-0.594-0.697-1.201-0.533-1.855c0.339-0.575,0.918-0.938,1.446-1.318
			c-0.797,0.098-1.531-0.091-1.928-0.839c-1.569,1.247-3.56,2.409-5.631,1.826c-2.86,1.033-5.959,0.845-8.925,0.48
			c-1.689-0.163-3.456-0.188-5.042,0.503c-1.658,0.725-3.32,1.706-4.338,3.246c-0.873,1.232-0.767,3.145,0.434,4.122
			c1.254,1.057,3.028,0.94,4.541,0.671c1.175-0.055,2.708-0.398,3.534,0.691c1.957,2.245,3.842,4.55,5.95,6.655
			c2.335,2.453,4.779,4.865,7.708,6.608c0.614-0.479,1.35-0.752,2.14-0.693c3.01-0.29,5.727,1.401,8.091,3.058
			c-2.498,0.203-4.829-1.208-7.33-0.841c1.881,0.955,4.714,2.451,8.633,3.303c0.537,0.116,4.497,0.227,5.157,0.321
			c-6.688,1.216-11.946-2.053-14.338-2.694c-0.31,0.531-0.478,1.241-1.053,1.555c-0.883,0.29-1.826,0.094-2.728,0.046
			c0.024-1.092,0.315-2.15,0.682-3.174c-0.292-0.194-0.583-0.382-0.874-0.566c-2.14-1.395-4.141-3.01-5.97-4.792
			c-2.007-2.07-3.984-4.172-5.851-6.367c-0.5-0.542-0.959-1.151-1.604-1.527c-1.175-0.249-2.375,0.037-3.558,0.114
			c-1.055,0.104-2.103-0.048-3.136-0.24c-1.171-0.03-1.75,1.188-2.663,1.711c-0.278-1.28,0.791-2.488,0.503-3.746
			c-0.956-1.544-0.856-3.575,0.076-5.104c1.12-1.95,3.152-3.132,5.137-4.05c3.095-1.423,6.553-0.508,9.815-0.555
			c1.922-0.04,4.082-0.245,5.526-1.658c1.31-1.322,2.473-2.78,3.759-4.123c0.5-0.624,1.162-1.149,1.478-1.902
			c1.82-4.947,3.711-9.884,6.094-14.593c0.69-1.26,1.335-2.544,1.925-3.854c0.011-0.019,0.03-0.056,0.041-0.073
			c0.863-1.275,1.627-2.61,2.448-3.913c0.833-1.161,1.682-2.313,2.348-3.578C106.903,54.366,112.599,48.877,118.72,44.033
			L118.72,44.033z"/>
		<radialGradient id="path6075_1_" cx="120.9463" cy="51.5" r="9.2382" gradientUnits="userSpaceOnUse">
			<stop  offset="0" style="stop-color:#FFFACB"/>
			<stop  offset="0.1161" style="stop-color:#FAF1BA"/>
			<stop  offset="0.3456" style="stop-color:#EED98D"/>
			<stop  offset="0.3708" style="stop-color:#EDD688"/>
			<stop  offset="0.6854" style="stop-color:#EABA10"/>
			<stop  offset="1" style="stop-color:#C2912E"/>
		</radialGradient>
		<path id="path6075_11_" fill="url(#path6075_1_)" d="M125.869,45.162c1.667-0.805,3.383-1.875,5.293-1.803
			c-0.055,0.956-0.845,1.572-1.472,2.186c-1.571,1.468-3.526,2.401-5.216,3.708c-4.674,3.343-9.102,7.01-13.745,10.391
			c1.874-2.144,3.718-4.316,5.661-6.398C119.133,50.109,122.383,47.432,125.869,45.162L125.869,45.162z"/>
		<radialGradient id="path6077_1_" cx="81.4512" cy="104.207" r="59.9472" gradientUnits="userSpaceOnUse">
			<stop  offset="0" style="stop-color:#FFFACB"/>
			<stop  offset="0.1161" style="stop-color:#FAF1BA"/>
			<stop  offset="0.3456" style="stop-color:#EED98D"/>
			<stop  offset="0.3708" style="stop-color:#EDD688"/>
			<stop  offset="0.6854" style="stop-color:#EABA10"/>
			<stop  offset="1" style="stop-color:#C2912E"/>
		</radialGradient>
		<path id="path6077_11_" fill="url(#path6077_1_)" d="M41.594,60.608c11.14-9.881,25.77-15.575,40.599-16.358
			c1.916-0.198,3.847-0.106,5.772-0.121c2.02-0.022,4.017,0.407,5.934,1.023c0.721,0.222,1.393,0.58,2.012,1.011
			c-1.328,0.238-2.674,0.1-4.01,0.113c-15.539-0.033-31.1,5.524-42.906,15.668c-1.691,1.634-3.358,3.297-4.994,4.985
			c-9.672,10.362-15.428,24.452-15.185,38.669c-0.068,5.515,0.979,11,2.604,16.252c0.889,2.537,1.802,5.085,3.069,7.462
			c2.407,4.659,5.242,9.155,8.866,12.974c2.844,3.137,5.867,6.156,9.349,8.591c1.365,0.992,2.766,1.931,4.201,2.82
			c4.578,2.875,9.565,5.104,14.764,6.586c5.985,1.566,12.241,2.103,18.413,1.7c15.782-0.874,31.253-7.518,42.485-18.69
			c2.45-0.225-0.203,0,8.691-0.273c-0.343,0.863-2.726,3.269-3.375,3.875c-7.964,7.387-17.879,12.598-28.396,15.248
			c-11.454,2.939-23.592,2.752-35.086,0.125c-9.989-2.223-19.703-6.115-28.025-12.14c-4.836-3.477-9.172-7.669-12.826-12.375
			c-8.512-10.945-12.972-25.086-11.69-38.932c0.994-12.713,6.679-24.917,15.414-34.165C38.565,63.155,40.03,61.821,41.594,60.608
			L41.594,60.608z"/>
		<radialGradient id="path6079_1_" cx="98.6914" cy="64.9414" r="2.5328" gradientUnits="userSpaceOnUse">
			<stop  offset="0" style="stop-color:#FFFACB"/>
			<stop  offset="0.1161" style="stop-color:#FAF1BA"/>
			<stop  offset="0.3456" style="stop-color:#EED98D"/>
			<stop  offset="0.3708" style="stop-color:#EDD688"/>
			<stop  offset="0.6854" style="stop-color:#EABA10"/>
			<stop  offset="1" style="stop-color:#C2912E"/>
		</radialGradient>
		<path id="path6079_11_" fill="url(#path6079_1_)" d="M97.336,61.625c1.066,1.077,1.833,1.789,2.709,2.721
			c-0.823,1.302-1.252,2.148-2.45,3.912C97.589,66.043,97.475,63.9,97.336,61.625L97.336,61.625z"/>
		<radialGradient id="path6081_1_" cx="97.5771" cy="68.2935" r="0.0289" gradientUnits="userSpaceOnUse">
			<stop  offset="0" style="stop-color:#FFFACB"/>
			<stop  offset="0.1161" style="stop-color:#FAF1BA"/>
			<stop  offset="0.3456" style="stop-color:#EED98D"/>
			<stop  offset="0.3708" style="stop-color:#EDD688"/>
			<stop  offset="0.6854" style="stop-color:#EABA10"/>
			<stop  offset="1" style="stop-color:#C2912E"/>
		</radialGradient>
		<path id="path6081_11_" fill="url(#path6081_1_)" d="M97.558,68.33c0.009-0.019,0.03-0.055,0.039-0.072
			C97.587,68.276,97.567,68.313,97.558,68.33z"/>
		<radialGradient id="path6083_1_" cx="94.3271" cy="70.2573" r="2.6601" gradientUnits="userSpaceOnUse">
			<stop  offset="0" style="stop-color:#FFFACB"/>
			<stop  offset="0.1161" style="stop-color:#FAF1BA"/>
			<stop  offset="0.3456" style="stop-color:#EED98D"/>
			<stop  offset="0.3708" style="stop-color:#EDD688"/>
			<stop  offset="0.6854" style="stop-color:#EABA10"/>
			<stop  offset="1" style="stop-color:#C2912E"/>
		</radialGradient>
		<path id="path6083_11_" fill="url(#path6083_1_)" d="M97.558,68.33c-0.592,1.311-1.236,2.597-1.925,3.855
			c-1.518-0.042-2.335-0.215-4.536-0.402C93.288,70.666,95.608,69.397,97.558,68.33z"/>
		<radialGradient id="path6085_1_" cx="140.9482" cy="81.582" r="15.6221" gradientUnits="userSpaceOnUse">
			<stop  offset="0" style="stop-color:#FFFACB"/>
			<stop  offset="0.1161" style="stop-color:#FAF1BA"/>
			<stop  offset="0.3456" style="stop-color:#EED98D"/>
			<stop  offset="0.3708" style="stop-color:#EDD688"/>
			<stop  offset="0.6854" style="stop-color:#EABA10"/>
			<stop  offset="1" style="stop-color:#C2912E"/>
		</radialGradient>
		<path id="path6085_11_" fill="url(#path6085_1_)" d="M154.862,68.943c1.181-0.394,2.431-0.891,3.696-0.601
			c0.118,1.079-0.76,1.833-1.439,2.531c-1.652,1.528-3.445,2.931-5.43,4.007c-2.228,1.352-4.353,2.865-6.551,4.266
			c-1.918,1.486-3.961,2.804-5.821,4.358c2.176-0.644,4.364-1.821,6.703-1.32c-1.8,2.466-4.973,3.057-7.451,4.567
			c-5.15,2.591-10.133,5.498-15.242,8.157c1.45-1.479,3.235-2.587,4.688-4.065c3.206-3.437,6.319-6.972,9.69-10.253
			c3.574-3.491,7.617-6.464,11.786-9.206C151.185,70.383,153.021,69.636,154.862,68.943L154.862,68.943z"/>
		<radialGradient id="path6087_1_" cx="76.5835" cy="84.7832" r="7.538" gradientUnits="userSpaceOnUse">
			<stop  offset="0" style="stop-color:#FFFACB"/>
			<stop  offset="0.1161" style="stop-color:#FAF1BA"/>
			<stop  offset="0.3456" style="stop-color:#EED98D"/>
			<stop  offset="0.3708" style="stop-color:#EDD688"/>
			<stop  offset="0.6854" style="stop-color:#EABA10"/>
			<stop  offset="1" style="stop-color:#C2912E"/>
		</radialGradient>
		<path id="path6087_11_" fill="url(#path6087_1_)" d="M72.843,76.739c2.045,1.903,2.554,2.628,4.127,3.933
			c1.761-1.154,2.896-1.993,4.668-3.401c-0.586,1.963-1.092,3.586-1.615,6.042c1.119,1.202,1.743,2.021,3.556,3.778
			c-2.375,0.071-3.508,0.112-5.183,0.277c-0.793,1.793-1.371,3.637-2.169,5.459c-0.469-1.782-0.804-3.637-1.332-5.851
			c-2.036-0.538-3.563-0.715-5.308-1.149c1.462-0.955,2.934-1.898,4.416-2.832C73.616,80.652,73.428,79.741,72.843,76.739
			L72.843,76.739z"/>
		<radialGradient id="path6089_1_" cx="142.2642" cy="95.9658" r="14.0769" gradientUnits="userSpaceOnUse">
			<stop  offset="0" style="stop-color:#FFFACB"/>
			<stop  offset="0.1161" style="stop-color:#FAF1BA"/>
			<stop  offset="0.3456" style="stop-color:#EED98D"/>
			<stop  offset="0.3708" style="stop-color:#EDD688"/>
			<stop  offset="0.6854" style="stop-color:#EABA10"/>
			<stop  offset="1" style="stop-color:#C2912E"/>
		</radialGradient>
		<path id="path6089_11_" fill="url(#path6089_1_)" d="M139.318,83.506c1.859-1.554,3.903-2.874,5.817-4.358
			c0.933,0.929,1.866,1.908,2.419,3.125c0.616,1.289,1.398,2.504,1.885,3.852c2.11,5.654,3.272,11.653,3.464,17.685
			c0.011,2.995,0.107,5.6-0.48,8.975c-6.023-6.478-13.486-11.553-20.812-14.441c0.505-0.81,0.539-1.778,0.568-2.704
			c-0.022-0.445,0.413-0.69,0.705-0.946c1.73-1.317,3.504-2.615,4.939-4.263c0.387-0.462,0.752-0.969,0.929-1.551
			c-0.003-0.457-0.306-0.838-0.483-1.233c-0.07-0.122-0.196-0.362-0.262-0.483c0.14-0.102,0.417-0.307,0.557-0.406
			c2.482-1.51,5.651-2.101,7.451-4.566C143.682,81.686,141.494,82.863,139.318,83.506L139.318,83.506z"/>
		<radialGradient id="path6091_1_" cx="47.752" cy="94.3223" r="9.6143" gradientUnits="userSpaceOnUse">
			<stop  offset="0" style="stop-color:#FFFACB"/>
			<stop  offset="0.1161" style="stop-color:#FAF1BA"/>
			<stop  offset="0.3456" style="stop-color:#EED98D"/>
			<stop  offset="0.3708" style="stop-color:#EDD688"/>
			<stop  offset="0.6854" style="stop-color:#EABA10"/>
			<stop  offset="1" style="stop-color:#C2912E"/>
		</radialGradient>
		<path id="path6091_11_" fill="url(#path6091_1_)" d="M45.188,92.129c1.584-2.77,1.998-3.702,3.713-7.324
			c0.378,3.485,0.496,4.87,0.896,7.157c2.737-0.031,5.027-0.134,7.665-0.306c-2.346,1.714-4.526,3.241-6.944,4.912
			c0.255,2.352,0.456,3.706,0.882,6.398c-2.337-1.322-3.648-2.154-5.428-3.303c-2.312,1.276-4.129,2.486-6.717,4.175
			c1.543-2.947,2.464-4.53,3.508-6.887c-1.551-1.623-2.935-2.793-4.722-4.62C40.485,92.332,42.818,92.166,45.188,92.129z"/>
		<radialGradient id="path6093_1_" cx="124.3916" cy="97.6348" r="12.3716" gradientUnits="userSpaceOnUse">
			<stop  offset="0" style="stop-color:#FFFACB"/>
			<stop  offset="0.1161" style="stop-color:#FAF1BA"/>
			<stop  offset="0.3456" style="stop-color:#EED98D"/>
			<stop  offset="0.3708" style="stop-color:#EDD688"/>
			<stop  offset="0.6854" style="stop-color:#EABA10"/>
			<stop  offset="1" style="stop-color:#C2912E"/>
		</radialGradient>
		<path id="path6093_11_" fill="url(#path6093_1_)" d="M138.271,87.642c0.177,0.397,0.476,0.778,0.483,1.233
			c-0.177,0.583-0.542,1.089-0.929,1.552c-1.435,1.647-3.209,2.945-4.939,4.263c-0.292,0.259-0.727,0.501-0.705,0.945
			c-0.029,0.93-0.062,1.898-0.568,2.704c-2.121,3.01-5.685,4.43-9.056,5.522c-2.619,0.839-5.238,1.695-7.844,2.567
			c-1.533,0.501-3.047,1.147-4.683,1.199c0.712-1.129,1.994-1.667,3.139-2.233c4.393-1.998,8.787-4.002,13.191-5.978
			c1.077-0.493,1.97-1.293,2.848-2.075c-0.476-0.319-1.32-0.456-1.306-1.169c-0.17-0.865,0.752-1.304,1.383-1.633
			c2.501-1.167,4.91-2.559,7.086-4.256C137.16,89.537,138.259,88.86,138.271,87.642L138.271,87.642z"/>
		<radialGradient id="path6097_1_" cx="128.9541" cy="118.0762" r="18.7117" gradientUnits="userSpaceOnUse">
			<stop  offset="0" style="stop-color:#FFFACB"/>
			<stop  offset="0.1161" style="stop-color:#FAF1BA"/>
			<stop  offset="0.3456" style="stop-color:#EED98D"/>
			<stop  offset="0.3708" style="stop-color:#EDD688"/>
			<stop  offset="0.6854" style="stop-color:#EABA10"/>
			<stop  offset="1" style="stop-color:#C2912E"/>
		</radialGradient>
		<path id="path6097_11_" fill="url(#path6097_1_)" d="M114.712,106.432c2.606-0.874,5.225-1.73,7.844-2.567
			c0.572,0.41,1.291,0.439,1.955,0.587c7.079,1.435,13.397,5.234,19.001,9.661c1.158,0.942,2.419,1.769,3.467,2.844
			c1.232,1.262,3.408,3.316,4.297,4.869c-0.911,4.097-1.446,5.441-3.49,10.462c-4.688-5.939-10.517-10.781-17.621-13.154
			c-5.135-1.479-8.953-1.243-13.401-0.97c-1.107,0.146-2.225,0.23-3.298,0.541c-1.169-1.278-2.411-2.488-3.713-3.628
			c-0.515-0.461-1.13-0.786-1.789-0.981l-0.16-0.055c-0.07-1.402-1.027-2.567-1.173-3.962c1.068-0.881,2.099-1.94,3.397-2.449
			C111.665,107.578,113.18,106.932,114.712,106.432L114.712,106.432L114.712,106.432z"/>
		<radialGradient id="path6099_1_" cx="54.4346" cy="118.7563" r="20.3668" gradientUnits="userSpaceOnUse">
			<stop  offset="0" style="stop-color:#FFFACB"/>
			<stop  offset="0.1161" style="stop-color:#FAF1BA"/>
			<stop  offset="0.3456" style="stop-color:#EED98D"/>
			<stop  offset="0.3708" style="stop-color:#EDD688"/>
			<stop  offset="0.6854" style="stop-color:#EABA10"/>
			<stop  offset="1" style="stop-color:#C2912E"/>
		</radialGradient>
		<path id="path6099_11_" fill="url(#path6099_1_)" d="M28.816,105.599c2.379,2.516,5.078,4.777,8.154,6.395
			c3.198,1.581,6.726,2.61,10.321,2.518c4.926,0.23,9.69-1.413,14.091-3.475c1.616-0.673,3.1-1.608,4.609-2.482
			c1.062-0.627,2.28-1.096,3.051-2.106c1.182-0.082,2.385-0.365,3.56-0.116c0.644,0.374,1.104,0.985,1.603,1.527
			c1.869,2.197,3.846,4.295,5.853,6.367c-0.495,0.568-1.074,1.055-1.681,1.503c-7.437,5.684-15.171,11.288-24.063,14.458
			c-5.699,2.068-12.123,2.418-17.863,0.297c-0.703-0.289-1.512-0.507-1.96-1.167c-1.267-2.377-2.182-4.928-3.071-7.462
			C29.795,116.599,28.748,111.113,28.816,105.599L28.816,105.599z"/>
		<radialGradient id="path6103_1_" cx="120.3125" cy="127.2471" r="12.7581" gradientUnits="userSpaceOnUse">
			<stop  offset="0" style="stop-color:#FFFACB"/>
			<stop  offset="0.1161" style="stop-color:#FAF1BA"/>
			<stop  offset="0.3456" style="stop-color:#EED98D"/>
			<stop  offset="0.3708" style="stop-color:#EDD688"/>
			<stop  offset="0.6854" style="stop-color:#EABA10"/>
			<stop  offset="1" style="stop-color:#C2912E"/>
		</radialGradient>
		<path id="path6103_11_" fill="url(#path6103_1_)" d="M107.965,114.09c0.659,0.195,1.276,0.523,1.789,0.985
			c1.304,1.136,2.543,2.35,3.715,3.626c2.958,3.287,5.454,6.953,8.379,10.27c2.283,2.534,4.814,4.847,7.591,6.831
			c1.073,0.823,2.283,1.494,3.22,2.486c-3.737,0.392-7.466-0.949-10.428-3.187c1.317,1.492,2.759,2.877,4.283,4.16
			c0.38,0.325,0.671,0.732,0.959,1.142c-3.785-0.098-7.418-1.989-9.783-4.926c-3.82-4.57-5.539-10.388-7.866-15.77
			c-0.507-1.328-1.276-2.542-1.743-3.888c0.78,0.579,1.42,1.315,2.119,1.984C109.57,116.502,108.692,115.341,107.965,114.09z"/>
		<radialGradient id="path6105_1_" cx="111.7852" cy="128.0908" r="9.7668" gradientUnits="userSpaceOnUse">
			<stop  offset="0" style="stop-color:#FFFACB"/>
			<stop  offset="0.1161" style="stop-color:#FAF1BA"/>
			<stop  offset="0.3456" style="stop-color:#EED98D"/>
			<stop  offset="0.3708" style="stop-color:#EDD688"/>
			<stop  offset="0.6854" style="stop-color:#EABA10"/>
			<stop  offset="1" style="stop-color:#C2912E"/>
		</radialGradient>
		<path id="path6105_11_" fill="url(#path6105_1_)" d="M105.986,115.555c0.605,1.311,0.795,2.757,1.236,4.122
			c1.772,6.285,5.439,11.802,9.25,17.018c0.813,1.133,1.26,2.536,1.068,3.933c-0.557-0.07-1.123-0.177-1.553-0.555
			c-1.819-1.218-2.724-3.281-3.831-5.085C108.703,129.052,107.032,122.285,105.986,115.555L105.986,115.555z"/>
		<radialGradient id="path6107_1_" cx="72.2217" cy="136.3564" r="23.8098" gradientUnits="userSpaceOnUse">
			<stop  offset="0" style="stop-color:#FFFACB"/>
			<stop  offset="0.1161" style="stop-color:#FAF1BA"/>
			<stop  offset="0.3456" style="stop-color:#EED98D"/>
			<stop  offset="0.3708" style="stop-color:#EDD688"/>
			<stop  offset="0.6854" style="stop-color:#EABA10"/>
			<stop  offset="1" style="stop-color:#C2912E"/>
		</radialGradient>
		<path id="path6107_11_" fill="url(#path6107_1_)" d="M86.027,119.017c0.291,0.186,0.583,0.374,0.874,0.568
			c-0.367,1.023-0.658,2.081-0.681,3.174c0.898,0.048,1.843,0.247,2.726-0.044c0.574-0.313,0.741-1.023,1.053-1.555
			c3.012,0.714,6.691,2.958,11.086,2.934c-3.016,0.874-5.489,2.883-8.458,5.091c-8.439,6.029-16.632,12.8-25.27,18.56
			c-3.368,2.171-6.808,4.259-10.45,5.952c-1.435-0.888-2.836-1.824-4.202-2.818c-3.482-2.435-6.505-5.456-9.349-8.591
			c1.962-0.498,4.026-0.478,5.963-1.118c6.43-1.582,12.282-4.836,17.813-8.379c5.242-3.406,10.135-7.306,15.143-11.042
			C83.537,120.857,84.702,119.821,86.027,119.017L86.027,119.017z"/>
		<radialGradient id="path6109_1_" cx="125.3765" cy="127.9023" r="5.6108" gradientUnits="userSpaceOnUse">
			<stop  offset="0" style="stop-color:#FFFACB"/>
			<stop  offset="0.1161" style="stop-color:#FAF1BA"/>
			<stop  offset="0.3456" style="stop-color:#EED98D"/>
			<stop  offset="0.3708" style="stop-color:#EDD688"/>
			<stop  offset="0.6854" style="stop-color:#EABA10"/>
			<stop  offset="1" style="stop-color:#C2912E"/>
		</radialGradient>
		<path id="path6109_11_" fill="url(#path6109_1_)" d="M118.635,123.718c3.493,2.047,6.875,4.298,10.513,6.09
			c1.11,0.539,2.221,1.181,2.97,2.188c-1.191,0.313-2.361-0.236-3.453-0.64C124.843,129.522,121.623,126.676,118.635,123.718
			L118.635,123.718z"/>
		<radialGradient id="path6671_1_" cx="67.917" cy="100.9014" r="0.7246" gradientUnits="userSpaceOnUse">
			<stop  offset="0" style="stop-color:#FFFACB"/>
			<stop  offset="0.1161" style="stop-color:#FAF1BA"/>
			<stop  offset="0.3456" style="stop-color:#EED98D"/>
			<stop  offset="0.3708" style="stop-color:#EDD688"/>
			<stop  offset="0.6854" style="stop-color:#EABA10"/>
			<stop  offset="1" style="stop-color:#C2912E"/>
		</radialGradient>
		<path id="path6671_11_" fill="url(#path6671_1_)" d="M68.642,100.903c0,0.398-0.327,0.723-0.725,0.723
			c-0.4,0-0.725-0.325-0.725-0.723c0-0.402,0.325-0.727,0.725-0.727c0.335,0,0.629,0.232,0.704,0.561l-0.704,0.166H68.642z"/>
	</g>
	<g id="g6394">
		<radialGradient id="path6396_1_" cx="195.8057" cy="58.625" r="18.8274" gradientUnits="userSpaceOnUse">
			<stop  offset="0" style="stop-color:#FFFACB"/>
			<stop  offset="0.1161" style="stop-color:#FAF1BA"/>
			<stop  offset="0.3456" style="stop-color:#EED98D"/>
			<stop  offset="0.3708" style="stop-color:#EDD688"/>
			<stop  offset="0.6854" style="stop-color:#EABA10"/>
			<stop  offset="1" style="stop-color:#C2912E"/>
		</radialGradient>
		<path id="path6396" fill="url(#path6396_1_)" d="M182.085,35.807h9.886c4.921,0,8.927,1.224,12.018,3.67
			c3.095,2.447,4.64,5.58,4.64,9.4c0,3.057-1,5.754-3.002,8.096c-2,2.339-5.12,3.986-9.358,4.94l13.257,19.531h-7.152l-12.66-18.77
			h-1.394v18.77h-6.234V35.807L182.085,35.807z M188.319,41.323v15.905c9.192,0.191,13.789-2.472,13.789-7.989
			c0-1.934-0.535-3.516-1.608-4.747c-1.077-1.23-2.508-2.065-4.301-2.506C194.409,41.544,191.779,41.323,188.319,41.323z"/>
		<radialGradient id="path6398_1_" cx="233.3867" cy="58.625" r="18.6532" gradientUnits="userSpaceOnUse">
			<stop  offset="0" style="stop-color:#FFFACB"/>
			<stop  offset="0.1161" style="stop-color:#FAF1BA"/>
			<stop  offset="0.3456" style="stop-color:#EED98D"/>
			<stop  offset="0.3708" style="stop-color:#EDD688"/>
			<stop  offset="0.6854" style="stop-color:#EABA10"/>
			<stop  offset="1" style="stop-color:#C2912E"/>
		</radialGradient>
		<path id="path6398" fill="url(#path6398_1_)" d="M220.149,35.807h9.17c5.183,0,9.362,1.218,12.538,3.654
			c3.177,2.436,4.767,5.6,4.767,9.492c0,3.918-1.679,7.201-5.035,9.852c-3.357,2.65-8.448,3.94-15.279,3.87v18.769h-6.16V35.807
			L220.149,35.807z M226.31,41.252v15.976c4.681-0.048,8.148-0.71,10.406-1.988c2.257-1.278,3.386-3.324,3.386-6.144
			c0-2.125-0.855-3.964-2.563-5.517C235.834,42.027,232.09,41.252,226.31,41.252z"/>
		<radialGradient id="path6400_1_" cx="273.5977" cy="58.6777" r="22.0521" gradientUnits="userSpaceOnUse">
			<stop  offset="0" style="stop-color:#FFFACB"/>
			<stop  offset="0.1161" style="stop-color:#FAF1BA"/>
			<stop  offset="0.3456" style="stop-color:#EED98D"/>
			<stop  offset="0.3708" style="stop-color:#EDD688"/>
			<stop  offset="0.6854" style="stop-color:#EABA10"/>
			<stop  offset="1" style="stop-color:#C2912E"/>
		</radialGradient>
		<path id="path6400" fill="url(#path6400_1_)" d="M293.139,37.384v7.056c-4.921-2.412-9.447-3.619-13.578-3.619
			c-5.301,0-9.768,1.713-13.397,5.135c-3.63,3.425-5.444,7.629-5.444,12.616c0,5.08,1.855,9.321,5.569,12.721
			c3.715,3.399,8.366,5.101,13.955,5.101c4.058,0,8.354-1.278,12.896-3.833v7.128c-4.132,2.197-8.609,3.295-13.435,3.295
			c-7.067,0-13.109-2.392-18.123-7.176c-5.02-4.785-7.524-10.554-7.524-17.308c0-6.634,2.464-12.313,7.399-17.039
			c4.928-4.725,10.871-7.088,17.82-7.088C283.74,34.374,288.361,35.376,293.139,37.384z"/>
		<radialGradient id="path6402_1_" cx="318.627" cy="59.4316" r="22.3086" gradientUnits="userSpaceOnUse">
			<stop  offset="0" style="stop-color:#FFFACB"/>
			<stop  offset="0.1161" style="stop-color:#FAF1BA"/>
			<stop  offset="0.3456" style="stop-color:#EED98D"/>
			<stop  offset="0.3708" style="stop-color:#EDD688"/>
			<stop  offset="0.6854" style="stop-color:#EABA10"/>
			<stop  offset="1" style="stop-color:#C2912E"/>
		</radialGradient>
		<path id="path6402" fill="url(#path6402_1_)" d="M297.636,35.878h6.576L318.547,68.2l14.438-32.322h6.633l-21.151,47.106
			L297.636,35.878z"/>
		<radialGradient id="path6404_1_" cx="360.7383" cy="62.9238" r="27.3012" gradientUnits="userSpaceOnUse">
			<stop  offset="0" style="stop-color:#FFFACB"/>
			<stop  offset="0.1161" style="stop-color:#FAF1BA"/>
			<stop  offset="0.3456" style="stop-color:#EED98D"/>
			<stop  offset="0.3708" style="stop-color:#EDD688"/>
			<stop  offset="0.6854" style="stop-color:#EABA10"/>
			<stop  offset="1" style="stop-color:#C2912E"/>
		</radialGradient>
		<path id="path6404" fill="url(#path6404_1_)" d="M373.66,28.248h4.058L348.013,97.6h-4.253L373.66,28.248z"/>
		<radialGradient id="path6406_1_" cx="416.0332" cy="58.4639" r="30.1305" gradientUnits="userSpaceOnUse">
			<stop  offset="0" style="stop-color:#FFFACB"/>
			<stop  offset="0.1161" style="stop-color:#FAF1BA"/>
			<stop  offset="0.3456" style="stop-color:#EED98D"/>
			<stop  offset="0.3708" style="stop-color:#EDD688"/>
			<stop  offset="0.6854" style="stop-color:#EABA10"/>
			<stop  offset="1" style="stop-color:#C2912E"/>
		</radialGradient>
		<path id="path6406" fill="url(#path6406_1_)" d="M416.048,34.052l14.688,33.687l13.785-31.861h6.437l-20.222,46.998
			l-14.682-33.762l-14.691,33.763l-20.256-46.998h6.434l13.889,32.22L416.048,34.052z"/>
	</g>
	<g id="g6408">
		<radialGradient id="path6069_2_" cx="131.96" cy="38.5688" r="18.0455" gradientUnits="userSpaceOnUse">
			<stop  offset="0" style="stop-color:#FFFACB"/>
			<stop  offset="0.1161" style="stop-color:#FAF1BA"/>
			<stop  offset="0.3456" style="stop-color:#EED98D"/>
			<stop  offset="0.3708" style="stop-color:#EDD688"/>
			<stop  offset="0.6854" style="stop-color:#EABA10"/>
			<stop  offset="1" style="stop-color:#C2912E"/>
		</radialGradient>
		<path id="path6069_10_" fill="url(#path6069_2_)" d="M140.963,26.659c3.072-1.724,6.326-3.194,9.746-4.047
			c0.575-0.192,1.088,0.362,1.136,0.9c-0.276,0.812-0.826,1.494-1.413,2.104c-2.298,2.4-5.009,4.371-7.872,6.043
			c-8.606,5.904-16.769,12.418-25.032,18.786c-1.813,1.379-3.567,2.845-5.454,4.121c1.415-1.842,3.051-3.506,4.542-5.293
			c4.102-4.631,8.145-9.337,12.686-13.554C132.94,32.393,136.909,29.451,140.963,26.659z"/>
		<radialGradient id="path6071_2_" cx="127.4102" cy="69.7729" r="29.5324" gradientUnits="userSpaceOnUse">
			<stop  offset="0" style="stop-color:#FFFACB"/>
			<stop  offset="0.1161" style="stop-color:#FAF1BA"/>
			<stop  offset="0.3456" style="stop-color:#EED98D"/>
			<stop  offset="0.3708" style="stop-color:#EDD688"/>
			<stop  offset="0.6854" style="stop-color:#EABA10"/>
			<stop  offset="1" style="stop-color:#C2912E"/>
		</radialGradient>
		<path id="path6071_10_" fill="url(#path6071_2_)" d="M140.886,34.259c1.346-0.8,2.885-1.737,4.511-1.339
			c0.716,0.367,0.336,1.293-0.136,1.698c-1.501,1.315-2.962,2.708-4.736,3.648c-0.989,0.642-2.298,1.417-2.361,2.721
			c0.826,0.892,2.176,1.02,3.334,0.993c1.413,0.059,2.914-0.217,4.253,0.389c0.716,0.292,1.295,1.044,1.092,1.849
			c-0.357,1.276-1.435,2.134-2.36,3.001c-1.299,1.144-2.545,2.35-3.811,3.537c-0.981,0.933-2.14,1.739-2.771,2.979
			c0.675,0.93,1.959,0.86,2.826,1.496c0.59,0.511,0.479,1.409,0.144,2.032c-0.583,1.119-1.487,2.031-2.125,3.12
			c2.01-0.724,4.062-1.356,6.183-1.647c1.121-0.199,2.117,0.954,1.899,2.029c-0.166,0.658-0.505,1.258-0.915,1.793
			c-3.645,4.469-7.344,8.896-10.952,13.391c0.273,0.432,0.679,0.837,0.708,1.38c0.203,1.583-0.801,3.016-1.918,4.031
			c-1.557,1.325-3.069,2.706-4.622,4.033c-1.343,1.099-2.859,2.032-3.936,3.419c-1.417,1.866-1.896,4.259-3.338,6.112
			c-2.538,3.659-6.09,6.463-9.862,8.768c-1.483,0.83-2.686,2.047-4.058,3.029c2.247-2.033,4.45-4.121,6.54-6.321
			c3.351-3.48,6.059-7.521,8.567-11.638c1.719-3.055,4.973-4.639,7.337-7.094c1.144-1.187,2.531-2.248,3.125-3.846
			c-0.513-0.226-1.11-0.325-1.501-0.752c-0.276-0.458-0.169-1.083,0.177-1.477c3.139-3.949,6.282-7.893,9.417-11.84
			c0.535-0.676,1.077-1.348,1.542-2.076c-2.398,0.654-4.714,1.561-7.083,2.3c-0.579,0.167-1.288,0.232-1.737-0.25
			c-0.332-0.861,0.044-1.777,0.546-2.483c1.088-1.582,2.438-2.962,3.53-4.542c-1.007-0.515-2.365-1.028-2.56-2.293
			c-0.306-2.005,1.339-3.533,2.696-4.739c2.143-1.932,4.795-3.374,6.448-5.797c-2.213-0.653-4.663-0.057-6.791-1.077
			c-0.753-0.376-1.686-1.003-1.546-1.973c0.155-1.656,1.727-2.595,2.98-3.434c1.918-1.039,3.877-2.139,5.36-3.779
			C143.567,33.415,142.25,34.037,140.886,34.259L140.886,34.259z"/>
		<radialGradient id="path6073_2_" cx="92.3047" cy="83.0859" r="35.6227" gradientUnits="userSpaceOnUse">
			<stop  offset="0" style="stop-color:#FFFACB"/>
			<stop  offset="0.1161" style="stop-color:#FAF1BA"/>
			<stop  offset="0.3456" style="stop-color:#EED98D"/>
			<stop  offset="0.3708" style="stop-color:#EDD688"/>
			<stop  offset="0.6854" style="stop-color:#EABA10"/>
			<stop  offset="1" style="stop-color:#C2912E"/>
		</radialGradient>
		<path id="path6073_10_" fill="url(#path6073_2_)" d="M118.72,44.033c0.911-0.698,1.771-1.485,2.814-1.979
			c-0.934,1.101-2.055,2.015-3.058,3.041c-6.61,6.554-12.715,13.752-17.132,21.986c2.558-3.381,5.253-6.757,8.722-9.25
			c-0.4,1.295-1.084,2.474-1.681,3.68c-1.733,3.406-3.611,6.737-5.367,10.129c1.603-1.318,2.91-3.058,4.779-4.007
			c-0.255,1.058-0.845,1.981-1.4,2.902c-0.828,1.342-1.675,2.671-2.654,3.91c-2.136,2.762-4.264,5.532-6.407,8.288
			c-0.62,0.813-1.009,1.764-1.479,2.664c-0.634,1.307-1.538,2.462-2.191,3.756c0.315-0.244,0.631-0.492,0.902-0.785
			c2.575-2.854,4.997-5.848,7.601-8.67c2.173-1.896,4.146-4.065,6.562-5.657c-0.258,1.13-0.928,2.099-1.57,3.046
			c-2.077,2.912-4.576,5.499-6.599,8.449c2.018-1.445,4.107-2.896,6.557-3.497c-2.189,2.738-5.214,4.601-7.953,6.724
			c-1.885,1.493-4.19,2.367-6.017,3.941c2.359-0.845,4.685-1.782,7.033-2.661c1.452-0.536,2.82-1.583,4.447-1.412
			c-0.553,0.728-1.367,1.167-2.126,1.632c-2.562,1.522-5.221,2.868-7.874,4.223c-0.895,0.469-1.843,0.852-2.654,1.468
			c2.833,0.251,5.661-0.85,8.486-0.268c-1.406,0.769-3.077,0.776-4.621,1.086c-1.33,0.28-2.698,0.325-4.019,0.655
			c2.663,0.636,5.395,0.983,8.03,1.732c-3.325,0.717-6.75,0.406-10.12,0.498c1.789,2.955,4.934,4.557,7.566,6.628
			c2.538,1.682,4.192,4.434,4.932,7.352c0.286,1.572-0.245,3.263-1.359,4.405c-0.24,0.254-0.885,0.221-0.961-0.174
			c-0.75-2.231-0.173-4.685-0.974-6.909c-0.472-1.686-1.795-2.913-2.971-4.131c-1.978-2.051-4.242-3.807-6.179-5.898
			c-0.384-0.406-0.662-0.9-0.948-1.371c0.238-0.252,0.448-0.61,0.832-0.64c1.112-0.173,2.246-0.052,3.366-0.187
			c-0.861-0.242-1.951-0.135-2.606-0.821c-0.214-0.594-0.697-1.201-0.533-1.855c0.339-0.575,0.918-0.938,1.446-1.318
			c-0.797,0.098-1.531-0.091-1.928-0.839c-1.569,1.247-3.56,2.409-5.631,1.826c-2.86,1.033-5.959,0.845-8.925,0.48
			c-1.689-0.163-3.456-0.188-5.042,0.503c-1.658,0.725-3.32,1.706-4.338,3.246c-0.873,1.232-0.767,3.145,0.434,4.122
			c1.254,1.057,3.028,0.94,4.541,0.671c1.175-0.055,2.708-0.398,3.534,0.691c1.957,2.245,3.842,4.55,5.95,6.655
			c2.335,2.453,4.779,4.865,7.708,6.608c0.614-0.479,1.35-0.752,2.14-0.693c3.01-0.29,5.727,1.401,8.091,3.058
			c-2.498,0.203-4.829-1.208-7.33-0.841c1.881,0.955,4.714,2.451,8.633,3.303c0.537,0.116,4.497,0.227,5.157,0.321
			c-6.688,1.216-11.946-2.053-14.338-2.694c-0.31,0.531-0.478,1.241-1.053,1.555c-0.883,0.29-1.826,0.094-2.728,0.046
			c0.024-1.092,0.315-2.15,0.682-3.174c-0.292-0.194-0.583-0.382-0.874-0.566c-2.14-1.395-4.141-3.01-5.97-4.792
			c-2.007-2.07-3.984-4.172-5.851-6.367c-0.5-0.542-0.959-1.151-1.604-1.527c-1.175-0.249-2.375,0.037-3.558,0.114
			c-1.055,0.104-2.103-0.048-3.136-0.24c-1.171-0.03-1.75,1.188-2.663,1.711c-0.278-1.28,0.791-2.488,0.503-3.746
			c-0.956-1.544-0.856-3.575,0.076-5.104c1.12-1.95,3.152-3.132,5.137-4.05c3.095-1.423,6.553-0.508,9.815-0.555
			c1.922-0.04,4.082-0.245,5.526-1.658c1.31-1.322,2.473-2.78,3.759-4.123c0.5-0.624,1.162-1.149,1.478-1.902
			c1.82-4.947,3.711-9.884,6.094-14.593c0.69-1.26,1.335-2.544,1.925-3.854c0.011-0.019,0.03-0.056,0.041-0.073
			c0.863-1.275,1.627-2.61,2.448-3.913c0.833-1.161,1.682-2.313,2.348-3.578C106.903,54.366,112.599,48.877,118.72,44.033
			L118.72,44.033z"/>
		<radialGradient id="path6075_2_" cx="120.9463" cy="51.5" r="9.2382" gradientUnits="userSpaceOnUse">
			<stop  offset="0" style="stop-color:#FFFACB"/>
			<stop  offset="0.1161" style="stop-color:#FAF1BA"/>
			<stop  offset="0.3456" style="stop-color:#EED98D"/>
			<stop  offset="0.3708" style="stop-color:#EDD688"/>
			<stop  offset="0.6854" style="stop-color:#EABA10"/>
			<stop  offset="1" style="stop-color:#C2912E"/>
		</radialGradient>
		<path id="path6075_10_" fill="url(#path6075_2_)" d="M125.869,45.162c1.667-0.805,3.383-1.875,5.293-1.803
			c-0.055,0.956-0.845,1.572-1.472,2.186c-1.571,1.468-3.526,2.401-5.216,3.708c-4.674,3.343-9.102,7.01-13.745,10.391
			c1.874-2.144,3.718-4.316,5.661-6.398C119.133,50.109,122.383,47.432,125.869,45.162L125.869,45.162z"/>
		<radialGradient id="path6077_2_" cx="81.4512" cy="104.207" r="59.9472" gradientUnits="userSpaceOnUse">
			<stop  offset="0" style="stop-color:#FFFACB"/>
			<stop  offset="0.1161" style="stop-color:#FAF1BA"/>
			<stop  offset="0.3456" style="stop-color:#EED98D"/>
			<stop  offset="0.3708" style="stop-color:#EDD688"/>
			<stop  offset="0.6854" style="stop-color:#EABA10"/>
			<stop  offset="1" style="stop-color:#C2912E"/>
		</radialGradient>
		<path id="path6077_10_" fill="url(#path6077_2_)" d="M41.594,60.608c11.14-9.881,25.77-15.575,40.599-16.358
			c1.916-0.198,3.847-0.106,5.772-0.121c2.02-0.022,4.017,0.407,5.934,1.023c0.721,0.222,1.393,0.58,2.012,1.011
			c-1.328,0.238-2.674,0.1-4.01,0.113c-15.539-0.033-31.1,5.524-42.906,15.668c-1.691,1.634-3.358,3.297-4.994,4.985
			c-9.672,10.362-15.428,24.452-15.185,38.669c-0.068,5.515,0.979,11,2.604,16.252c0.889,2.537,1.802,5.085,3.069,7.462
			c2.407,4.659,5.242,9.155,8.866,12.974c2.844,3.137,5.867,6.156,9.349,8.591c1.365,0.992,2.766,1.931,4.201,2.82
			c4.578,2.875,9.565,5.104,14.764,6.586c5.985,1.566,12.241,2.103,18.413,1.7c15.782-0.874,31.253-7.518,42.485-18.69
			c2.45-0.225-0.203,0,8.691-0.273c-0.343,0.863-2.726,3.269-3.375,3.875c-7.964,7.387-17.879,12.598-28.396,15.248
			c-11.454,2.939-23.592,2.752-35.086,0.125c-9.989-2.223-19.703-6.115-28.025-12.14c-4.836-3.477-9.172-7.669-12.826-12.375
			c-8.512-10.945-12.972-25.086-11.69-38.932c0.994-12.713,6.679-24.917,15.414-34.165C38.565,63.155,40.03,61.821,41.594,60.608
			L41.594,60.608z"/>
		<radialGradient id="path6079_2_" cx="98.6914" cy="64.9414" r="2.5328" gradientUnits="userSpaceOnUse">
			<stop  offset="0" style="stop-color:#FFFACB"/>
			<stop  offset="0.1161" style="stop-color:#FAF1BA"/>
			<stop  offset="0.3456" style="stop-color:#EED98D"/>
			<stop  offset="0.3708" style="stop-color:#EDD688"/>
			<stop  offset="0.6854" style="stop-color:#EABA10"/>
			<stop  offset="1" style="stop-color:#C2912E"/>
		</radialGradient>
		<path id="path6079_10_" fill="url(#path6079_2_)" d="M97.336,61.625c1.066,1.077,1.833,1.789,2.709,2.721
			c-0.823,1.302-1.252,2.148-2.45,3.912C97.589,66.043,97.475,63.9,97.336,61.625L97.336,61.625z"/>
		<radialGradient id="path6081_2_" cx="97.5771" cy="68.2935" r="0.0289" gradientUnits="userSpaceOnUse">
			<stop  offset="0" style="stop-color:#FFFACB"/>
			<stop  offset="0.1161" style="stop-color:#FAF1BA"/>
			<stop  offset="0.3456" style="stop-color:#EED98D"/>
			<stop  offset="0.3708" style="stop-color:#EDD688"/>
			<stop  offset="0.6854" style="stop-color:#EABA10"/>
			<stop  offset="1" style="stop-color:#C2912E"/>
		</radialGradient>
		<path id="path6081_10_" fill="url(#path6081_2_)" d="M97.558,68.33c0.009-0.019,0.03-0.055,0.039-0.072
			C97.587,68.276,97.567,68.313,97.558,68.33z"/>
		<radialGradient id="path6083_2_" cx="94.3271" cy="70.2573" r="2.6601" gradientUnits="userSpaceOnUse">
			<stop  offset="0" style="stop-color:#FFFACB"/>
			<stop  offset="0.1161" style="stop-color:#FAF1BA"/>
			<stop  offset="0.3456" style="stop-color:#EED98D"/>
			<stop  offset="0.3708" style="stop-color:#EDD688"/>
			<stop  offset="0.6854" style="stop-color:#EABA10"/>
			<stop  offset="1" style="stop-color:#C2912E"/>
		</radialGradient>
		<path id="path6083_10_" fill="url(#path6083_2_)" d="M97.558,68.33c-0.592,1.311-1.236,2.597-1.925,3.855
			c-1.518-0.042-2.335-0.215-4.536-0.402C93.288,70.666,95.608,69.397,97.558,68.33z"/>
		<radialGradient id="path6085_2_" cx="140.9482" cy="81.582" r="15.6221" gradientUnits="userSpaceOnUse">
			<stop  offset="0" style="stop-color:#FFFACB"/>
			<stop  offset="0.1161" style="stop-color:#FAF1BA"/>
			<stop  offset="0.3456" style="stop-color:#EED98D"/>
			<stop  offset="0.3708" style="stop-color:#EDD688"/>
			<stop  offset="0.6854" style="stop-color:#EABA10"/>
			<stop  offset="1" style="stop-color:#C2912E"/>
		</radialGradient>
		<path id="path6085_10_" fill="url(#path6085_2_)" d="M154.862,68.943c1.181-0.394,2.431-0.891,3.696-0.601
			c0.118,1.079-0.76,1.833-1.439,2.531c-1.652,1.528-3.445,2.931-5.43,4.007c-2.228,1.352-4.353,2.865-6.551,4.266
			c-1.918,1.486-3.961,2.804-5.821,4.358c2.176-0.644,4.364-1.821,6.703-1.32c-1.8,2.466-4.973,3.057-7.451,4.567
			c-5.15,2.591-10.133,5.498-15.242,8.157c1.45-1.479,3.235-2.587,4.688-4.065c3.206-3.437,6.319-6.972,9.69-10.253
			c3.574-3.491,7.617-6.464,11.786-9.206C151.185,70.383,153.021,69.636,154.862,68.943L154.862,68.943z"/>
		<radialGradient id="path6087_2_" cx="76.5835" cy="84.7832" r="7.538" gradientUnits="userSpaceOnUse">
			<stop  offset="0" style="stop-color:#FFFACB"/>
			<stop  offset="0.1161" style="stop-color:#FAF1BA"/>
			<stop  offset="0.3456" style="stop-color:#EED98D"/>
			<stop  offset="0.3708" style="stop-color:#EDD688"/>
			<stop  offset="0.6854" style="stop-color:#EABA10"/>
			<stop  offset="1" style="stop-color:#C2912E"/>
		</radialGradient>
		<path id="path6087_10_" fill="url(#path6087_2_)" d="M72.843,76.739c2.045,1.903,2.554,2.628,4.127,3.933
			c1.761-1.154,2.896-1.993,4.668-3.401c-0.586,1.963-1.092,3.586-1.615,6.042c1.119,1.202,1.743,2.021,3.556,3.778
			c-2.375,0.071-3.508,0.112-5.183,0.277c-0.793,1.793-1.371,3.637-2.169,5.459c-0.469-1.782-0.804-3.637-1.332-5.851
			c-2.036-0.538-3.563-0.715-5.308-1.149c1.462-0.955,2.934-1.898,4.416-2.832C73.616,80.652,73.428,79.741,72.843,76.739
			L72.843,76.739z"/>
		<radialGradient id="path6089_2_" cx="142.2642" cy="95.9658" r="14.0769" gradientUnits="userSpaceOnUse">
			<stop  offset="0" style="stop-color:#FFFACB"/>
			<stop  offset="0.1161" style="stop-color:#FAF1BA"/>
			<stop  offset="0.3456" style="stop-color:#EED98D"/>
			<stop  offset="0.3708" style="stop-color:#EDD688"/>
			<stop  offset="0.6854" style="stop-color:#EABA10"/>
			<stop  offset="1" style="stop-color:#C2912E"/>
		</radialGradient>
		<path id="path6089_10_" fill="url(#path6089_2_)" d="M139.318,83.506c1.859-1.554,3.903-2.874,5.817-4.358
			c0.933,0.929,1.866,1.908,2.419,3.125c0.616,1.289,1.398,2.504,1.885,3.852c2.11,5.654,3.272,11.653,3.464,17.685
			c0.011,2.995,0.107,5.6-0.48,8.975c-6.023-6.478-13.486-11.553-20.812-14.441c0.505-0.81,0.539-1.778,0.568-2.704
			c-0.022-0.445,0.413-0.69,0.705-0.946c1.73-1.317,3.504-2.615,4.939-4.263c0.387-0.462,0.752-0.969,0.929-1.551
			c-0.003-0.457-0.306-0.838-0.483-1.233c-0.07-0.122-0.196-0.362-0.262-0.483c0.14-0.102,0.417-0.307,0.557-0.406
			c2.482-1.51,5.651-2.101,7.451-4.566C143.682,81.686,141.494,82.863,139.318,83.506L139.318,83.506z"/>
		<radialGradient id="path6091_2_" cx="47.752" cy="94.3223" r="9.6143" gradientUnits="userSpaceOnUse">
			<stop  offset="0" style="stop-color:#FFFACB"/>
			<stop  offset="0.1161" style="stop-color:#FAF1BA"/>
			<stop  offset="0.3456" style="stop-color:#EED98D"/>
			<stop  offset="0.3708" style="stop-color:#EDD688"/>
			<stop  offset="0.6854" style="stop-color:#EABA10"/>
			<stop  offset="1" style="stop-color:#C2912E"/>
		</radialGradient>
		<path id="path6091_10_" fill="url(#path6091_2_)" d="M45.188,92.129c1.584-2.77,1.998-3.702,3.713-7.324
			c0.378,3.485,0.496,4.87,0.896,7.157c2.737-0.031,5.027-0.134,7.665-0.306c-2.346,1.714-4.526,3.241-6.944,4.912
			c0.255,2.352,0.456,3.706,0.882,6.398c-2.337-1.322-3.648-2.154-5.428-3.303c-2.312,1.276-4.129,2.486-6.717,4.175
			c1.543-2.947,2.464-4.53,3.508-6.887c-1.551-1.623-2.935-2.793-4.722-4.62C40.485,92.332,42.818,92.166,45.188,92.129z"/>
		<radialGradient id="path6093_2_" cx="124.3916" cy="97.6348" r="12.3716" gradientUnits="userSpaceOnUse">
			<stop  offset="0" style="stop-color:#FFFACB"/>
			<stop  offset="0.1161" style="stop-color:#FAF1BA"/>
			<stop  offset="0.3456" style="stop-color:#EED98D"/>
			<stop  offset="0.3708" style="stop-color:#EDD688"/>
			<stop  offset="0.6854" style="stop-color:#EABA10"/>
			<stop  offset="1" style="stop-color:#C2912E"/>
		</radialGradient>
		<path id="path6093_10_" fill="url(#path6093_2_)" d="M138.271,87.642c0.177,0.397,0.476,0.778,0.483,1.233
			c-0.177,0.583-0.542,1.089-0.929,1.552c-1.435,1.647-3.209,2.945-4.939,4.263c-0.292,0.259-0.727,0.501-0.705,0.945
			c-0.029,0.93-0.062,1.898-0.568,2.704c-2.121,3.01-5.685,4.43-9.056,5.522c-2.619,0.839-5.238,1.695-7.844,2.567
			c-1.533,0.501-3.047,1.147-4.683,1.199c0.712-1.129,1.994-1.667,3.139-2.233c4.393-1.998,8.787-4.002,13.191-5.978
			c1.077-0.493,1.97-1.293,2.848-2.075c-0.476-0.319-1.32-0.456-1.306-1.169c-0.17-0.865,0.752-1.304,1.383-1.633
			c2.501-1.167,4.91-2.559,7.086-4.256C137.16,89.537,138.259,88.86,138.271,87.642L138.271,87.642z"/>
		<radialGradient id="path6097_2_" cx="128.9541" cy="118.0762" r="18.7117" gradientUnits="userSpaceOnUse">
			<stop  offset="0" style="stop-color:#FFFACB"/>
			<stop  offset="0.1161" style="stop-color:#FAF1BA"/>
			<stop  offset="0.3456" style="stop-color:#EED98D"/>
			<stop  offset="0.3708" style="stop-color:#EDD688"/>
			<stop  offset="0.6854" style="stop-color:#EABA10"/>
			<stop  offset="1" style="stop-color:#C2912E"/>
		</radialGradient>
		<path id="path6097_10_" fill="url(#path6097_2_)" d="M114.712,106.432c2.606-0.874,5.225-1.73,7.844-2.567
			c0.572,0.41,1.291,0.439,1.955,0.587c7.079,1.435,13.397,5.234,19.001,9.661c1.158,0.942,2.419,1.769,3.467,2.844
			c1.232,1.262,3.408,3.316,4.297,4.869c-0.911,4.097-1.446,5.441-3.49,10.462c-4.688-5.939-10.517-10.781-17.621-13.154
			c-5.135-1.479-8.953-1.243-13.401-0.97c-1.107,0.146-2.225,0.23-3.298,0.541c-1.169-1.278-2.411-2.488-3.713-3.628
			c-0.515-0.461-1.13-0.786-1.789-0.981l-0.16-0.055c-0.07-1.402-1.027-2.567-1.173-3.962c1.068-0.881,2.099-1.94,3.397-2.449
			C111.665,107.578,113.18,106.932,114.712,106.432L114.712,106.432L114.712,106.432z"/>
		<radialGradient id="path6099_2_" cx="54.4346" cy="118.7563" r="20.3668" gradientUnits="userSpaceOnUse">
			<stop  offset="0" style="stop-color:#FFFACB"/>
			<stop  offset="0.1161" style="stop-color:#FAF1BA"/>
			<stop  offset="0.3456" style="stop-color:#EED98D"/>
			<stop  offset="0.3708" style="stop-color:#EDD688"/>
			<stop  offset="0.6854" style="stop-color:#EABA10"/>
			<stop  offset="1" style="stop-color:#C2912E"/>
		</radialGradient>
		<path id="path6099_10_" fill="url(#path6099_2_)" d="M28.816,105.599c2.379,2.516,5.078,4.777,8.154,6.395
			c3.198,1.581,6.726,2.61,10.321,2.518c4.926,0.23,9.69-1.413,14.091-3.475c1.616-0.673,3.1-1.608,4.609-2.482
			c1.062-0.627,2.28-1.096,3.051-2.106c1.182-0.082,2.385-0.365,3.56-0.116c0.644,0.374,1.104,0.985,1.603,1.527
			c1.869,2.197,3.846,4.295,5.853,6.367c-0.495,0.568-1.074,1.055-1.681,1.503c-7.437,5.684-15.171,11.288-24.063,14.458
			c-5.699,2.068-12.123,2.418-17.863,0.297c-0.703-0.289-1.512-0.507-1.96-1.167c-1.267-2.377-2.182-4.928-3.071-7.462
			C29.795,116.599,28.748,111.113,28.816,105.599L28.816,105.599z"/>
		<radialGradient id="path6103_2_" cx="120.3125" cy="127.2471" r="12.7581" gradientUnits="userSpaceOnUse">
			<stop  offset="0" style="stop-color:#FFFACB"/>
			<stop  offset="0.1161" style="stop-color:#FAF1BA"/>
			<stop  offset="0.3456" style="stop-color:#EED98D"/>
			<stop  offset="0.3708" style="stop-color:#EDD688"/>
			<stop  offset="0.6854" style="stop-color:#EABA10"/>
			<stop  offset="1" style="stop-color:#C2912E"/>
		</radialGradient>
		<path id="path6103_10_" fill="url(#path6103_2_)" d="M107.965,114.09c0.659,0.195,1.276,0.523,1.789,0.985
			c1.304,1.136,2.543,2.35,3.715,3.626c2.958,3.287,5.454,6.953,8.379,10.27c2.283,2.534,4.814,4.847,7.591,6.831
			c1.073,0.823,2.283,1.494,3.22,2.486c-3.737,0.392-7.466-0.949-10.428-3.187c1.317,1.492,2.759,2.877,4.283,4.16
			c0.38,0.325,0.671,0.732,0.959,1.142c-3.785-0.098-7.418-1.989-9.783-4.926c-3.82-4.57-5.539-10.388-7.866-15.77
			c-0.507-1.328-1.276-2.542-1.743-3.888c0.78,0.579,1.42,1.315,2.119,1.984C109.57,116.502,108.692,115.341,107.965,114.09z"/>
		<radialGradient id="path6105_2_" cx="111.7852" cy="128.0908" r="9.7668" gradientUnits="userSpaceOnUse">
			<stop  offset="0" style="stop-color:#FFFACB"/>
			<stop  offset="0.1161" style="stop-color:#FAF1BA"/>
			<stop  offset="0.3456" style="stop-color:#EED98D"/>
			<stop  offset="0.3708" style="stop-color:#EDD688"/>
			<stop  offset="0.6854" style="stop-color:#EABA10"/>
			<stop  offset="1" style="stop-color:#C2912E"/>
		</radialGradient>
		<path id="path6105_10_" fill="url(#path6105_2_)" d="M105.986,115.555c0.605,1.311,0.795,2.757,1.236,4.122
			c1.772,6.285,5.439,11.802,9.25,17.018c0.813,1.133,1.26,2.536,1.068,3.933c-0.557-0.07-1.123-0.177-1.553-0.555
			c-1.819-1.218-2.724-3.281-3.831-5.085C108.703,129.052,107.032,122.285,105.986,115.555L105.986,115.555z"/>
		<radialGradient id="path6107_2_" cx="72.2217" cy="136.3564" r="23.8098" gradientUnits="userSpaceOnUse">
			<stop  offset="0" style="stop-color:#FFFACB"/>
			<stop  offset="0.1161" style="stop-color:#FAF1BA"/>
			<stop  offset="0.3456" style="stop-color:#EED98D"/>
			<stop  offset="0.3708" style="stop-color:#EDD688"/>
			<stop  offset="0.6854" style="stop-color:#EABA10"/>
			<stop  offset="1" style="stop-color:#C2912E"/>
		</radialGradient>
		<path id="path6107_10_" fill="url(#path6107_2_)" d="M86.027,119.017c0.291,0.186,0.583,0.374,0.874,0.568
			c-0.367,1.023-0.658,2.081-0.681,3.174c0.898,0.048,1.843,0.247,2.726-0.044c0.574-0.313,0.741-1.023,1.053-1.555
			c3.012,0.714,6.691,2.958,11.086,2.934c-3.016,0.874-5.489,2.883-8.458,5.091c-8.439,6.029-16.632,12.8-25.27,18.56
			c-3.368,2.171-6.808,4.259-10.45,5.952c-1.435-0.888-2.836-1.824-4.202-2.818c-3.482-2.435-6.505-5.456-9.349-8.591
			c1.962-0.498,4.026-0.478,5.963-1.118c6.43-1.582,12.282-4.836,17.813-8.379c5.242-3.406,10.135-7.306,15.143-11.042
			C83.537,120.857,84.702,119.821,86.027,119.017L86.027,119.017z"/>
		<radialGradient id="path6109_2_" cx="125.3765" cy="127.9023" r="5.6108" gradientUnits="userSpaceOnUse">
			<stop  offset="0" style="stop-color:#FFFACB"/>
			<stop  offset="0.1161" style="stop-color:#FAF1BA"/>
			<stop  offset="0.3456" style="stop-color:#EED98D"/>
			<stop  offset="0.3708" style="stop-color:#EDD688"/>
			<stop  offset="0.6854" style="stop-color:#EABA10"/>
			<stop  offset="1" style="stop-color:#C2912E"/>
		</radialGradient>
		<path id="path6109_10_" fill="url(#path6109_2_)" d="M118.635,123.718c3.493,2.047,6.875,4.298,10.513,6.09
			c1.11,0.539,2.221,1.181,2.97,2.188c-1.191,0.313-2.361-0.236-3.453-0.64C124.843,129.522,121.623,126.676,118.635,123.718
			L118.635,123.718z"/>
		<radialGradient id="path6671_2_" cx="67.917" cy="100.9014" r="0.7246" gradientUnits="userSpaceOnUse">
			<stop  offset="0" style="stop-color:#FFFACB"/>
			<stop  offset="0.1161" style="stop-color:#FAF1BA"/>
			<stop  offset="0.3456" style="stop-color:#EED98D"/>
			<stop  offset="0.3708" style="stop-color:#EDD688"/>
			<stop  offset="0.6854" style="stop-color:#EABA10"/>
			<stop  offset="1" style="stop-color:#C2912E"/>
		</radialGradient>
		<path id="path6671_10_" fill="url(#path6671_2_)" d="M68.642,100.903c0,0.398-0.327,0.723-0.725,0.723
			c-0.4,0-0.725-0.325-0.725-0.723c0-0.402,0.325-0.727,0.725-0.727c0.335,0,0.629,0.232,0.704,0.561l-0.704,0.166H68.642z"/>
	</g>
</g>
<text transform="matrix(1 0 0 1 183.1636 132.2871)"><tspan x="0" y="0" fill="#ECB739" font-family="'TwCenMT-Regular'" font-size="22">2016 HO</tspan><tspan x="81.948" y="0" fill="#ECB739" font-family="'TwCenMT-Regular'" font-size="22">LI</tspan><tspan x="94.356" y="0" fill="#ECB739" font-family="'TwCenMT-Regular'" font-size="22">DAY </tspan><tspan x="137.468" y="0" fill="#ECB739" font-family="'TwCenMT-Regular'" font-size="22">G</tspan><tspan x="153.991" y="0" fill="#ECB739" font-family="'TwCenMT-Regular'" font-size="22">ATS</tspan><tspan x="186.661" y="0" fill="#ECB739" font-family="'TwCenMT-Regular'" font-size="22">BY</tspan><tspan x="208.918" y="0" fill="#ECB739" font-family="'TwCenMT-Regular'" font-size="22"> </tspan><tspan x="214.57" y="0" fill="#ECB739" font-family="'TwCenMT-Regular'" font-size="22">G</tspan><tspan x="231.092" y="0" fill="#ECB739" font-family="'TwCenMT-Regular'" font-size="22">A</tspan><tspan x="243.961" y="0" fill="#ECB739" font-family="'TwCenMT-Regular'" font-size="22">L</tspan><tspan x="251.987" y="0" fill="#ECB739" font-family="'TwCenMT-Regular'" font-size="22">A </tspan><tspan x="53.151" y="26.4" fill="#ECB739" font-family="'TwCenMT-Regular'" font-size="22">&amp; S</tspan><tspan x="83.64" y="26.4" fill="#ECB739" font-family="'TwCenMT-Regular'" font-size="22">IL</tspan><tspan x="96.048" y="26.4" fill="#ECB739" font-family="'TwCenMT-Regular'" font-size="22">EN</tspan><tspan x="119.522" y="26.4" fill="#ECB739" font-family="'TwCenMT-Regular'" font-size="22">T</tspan><tspan x="128.717" y="26.4" fill="#ECB739" font-family="'TwCenMT-Regular'" font-size="22"> AU</tspan><tspan x="160.109" y="26.4" fill="#ECB739" font-family="'TwCenMT-Regular'" font-size="22">C</tspan><tspan x="172.958" y="26.4" fill="#ECB739" font-family="'TwCenMT-Regular'" font-size="22">T</tspan><tspan x="182.174" y="26.4" fill="#ECB739" font-family="'TwCenMT-Regular'" font-size="22">I</tspan><tspan x="186.558" y="26.4" fill="#ECB739" font-family="'TwCenMT-Regular'" font-size="22">O</tspan><tspan x="203.102" y="26.4" fill="#ECB739" font-family="'TwCenMT-Regular'" font-size="22">N</tspan></text>
<text transform="matrix(1 0 0 1 41.835 202.8105)"><tspan x="0" y="0" fill="#EBB638" font-family="'TwCenMT-Regular'" font-size="14">7-11PM Saturday, December 3, 201</tspan><tspan x="211.386" y="0" fill="#EBB638" font-family="'TwCenMT-Regular'" font-size="14">6 at </tspan><tspan x="241.423" y="0" fill="#ECB739" font-family="'TwCenMT-Regular'" font-size="14">4300 Nebras</tspan><tspan x="318.185" y="0" fill="#ECB739" font-family="'TwCenMT-Regular'" font-size="14">k</tspan><tspan x="325.628" y="0" fill="#ECB739" font-family="'TwCenMT-Regular'" font-size="14">a Ave NW</tspan></text>
</svg>
