<?xml version="1.0" encoding="utf-8"?>
<!-- Generator: Adobe Illustrator 16.0.0, SVG Export Plug-In . SVG Version: 6.00 Build 0)  -->
<!DOCTYPE svg PUBLIC "-//W3C//DTD SVG 1.1//EN" "http://www.w3.org/Graphics/SVG/1.1/DTD/svg11.dtd">
<svg version="1.1" id="Layer_1" xmlns="http://www.w3.org/2000/svg" xmlns:xlink="http://www.w3.org/1999/xlink" x="0px" y="0px"
	 width="466.512px" height="154px" viewBox="0 0 466.512 154" enable-background="new 0 0 466.512 154" xml:space="preserve">
<g>
	<g enable-background="new    ">
		<path fill="#FFFFFF" d="M174.343,47.194h10.744c5.345,0,9.698,1.329,13.059,3.987c3.36,2.66,5.041,6.064,5.041,10.215
			c0,3.322-1.087,6.254-3.261,8.797c-2.174,2.542-5.565,4.332-10.172,5.369l14.406,21.223h-7.771l-13.756-20.396h-1.518v20.396
			h-6.773V47.194L174.343,47.194z M181.116,53.188v17.283c9.99,0.209,14.985-2.686,14.985-8.681c0-2.103-0.584-3.819-1.751-5.157
			c-1.168-1.336-2.725-2.244-4.671-2.725S184.879,53.188,181.116,53.188z"/>
		<path fill="#FFFFFF" d="M215.705,47.194h9.965c5.631,0,10.172,1.323,13.625,3.97c3.451,2.646,5.177,6.086,5.177,10.314
			c0,4.258-1.822,7.824-5.47,10.705c-3.646,2.881-9.181,4.281-16.602,4.205v20.396h-6.694L215.705,47.194L215.705,47.194z
			 M222.399,53.11v17.36c5.086-0.052,8.855-0.771,11.309-2.16c2.452-1.389,3.678-3.612,3.678-6.676c0-2.31-0.928-4.308-2.783-5.994
			C232.748,53.953,228.681,53.11,222.399,53.11z"/>
		<path fill="#FFFFFF" d="M295.019,48.907v7.668c-5.347-2.621-10.264-3.933-14.754-3.933c-5.761,0-10.613,1.86-14.558,5.58
			c-3.944,3.722-5.917,8.291-5.917,13.709c0,5.521,2.018,10.129,6.053,13.822c4.035,3.694,9.09,5.543,15.162,5.543
			c4.411,0,9.082-1.389,14.014-4.166v7.746c-4.49,2.387-9.354,3.581-14.598,3.581c-7.682,0-14.246-2.601-19.695-7.799
			c-5.451-5.198-8.176-11.468-8.176-18.808c0-7.209,2.68-13.379,8.039-18.515c5.357-5.135,11.812-7.702,19.365-7.702
			C284.806,45.637,289.827,46.727,295.019,48.907z"/>
		<path fill="#FFFFFF" d="M299.905,47.271h7.148l15.574,35.123l15.688-35.123h7.209L322.54,98.459L299.905,47.271z"/>
		<path fill="#FFFFFF" d="M382.518,38.98h4.41l-32.282,75.359h-4.618L382.518,38.98z"/>
		<path fill="#FFFFFF" d="M428.58,45.286l15.96,36.606l14.979-34.623h6.993l-21.974,51.07l-15.952-36.688L412.62,98.34
			l-22.013-51.07h6.992l15.093,35.013L428.58,45.286z"/>
	</g>
	<g>
		<path id="path6069" fill="#FFFFFF" d="M129.66,4.44c3.336-1.873,6.871-3.47,10.59-4.397c0.622-0.21,1.18,0.393,1.231,0.979
			c-0.3,0.882-0.898,1.623-1.535,2.285c-2.498,2.608-5.443,4.75-8.552,6.566c-9.354,6.416-18.225,13.494-27.201,20.414
			c-1.973,1.498-3.878,3.091-5.929,4.477c1.539-2,3.316-3.81,4.937-5.752c4.456-5.031,8.852-10.146,13.784-14.728
			C120.938,10.671,125.253,7.475,129.66,4.44z"/>
		<path id="path6071" fill="#FFFFFF" d="M129.572,12.699c1.464-0.87,3.135-1.889,4.905-1.455c0.775,0.398,0.364,1.406-0.15,1.846
			c-1.63,1.428-3.218,2.942-5.147,3.963c-1.072,0.698-2.496,1.539-2.565,2.957c0.898,0.971,2.366,1.109,3.624,1.08
			c1.537,0.064,3.168-0.236,4.62,0.424c0.781,0.315,1.408,1.133,1.188,2.008c-0.387,1.387-1.558,2.318-2.564,3.262
			c-1.414,1.242-2.769,2.553-4.14,3.843c-1.069,1.015-2.327,1.89-3.012,3.236c0.734,1.01,2.128,0.935,3.07,1.625
			c0.64,0.556,0.522,1.532,0.154,2.208c-0.63,1.216-1.614,2.207-2.307,3.39c2.185-0.786,4.412-1.474,6.719-1.789
			c1.217-0.217,2.298,1.036,2.063,2.205c-0.18,0.714-0.551,1.366-0.994,1.947c-3.961,4.856-7.979,9.667-11.902,14.552
			c0.296,0.471,0.741,0.91,0.77,1.5c0.22,1.719-0.869,3.277-2.082,4.381c-1.693,1.438-3.337,2.939-5.024,4.381
			c-1.459,1.194-3.105,2.209-4.274,3.717c-1.543,2.027-2.063,4.627-3.63,6.642c-2.758,3.978-6.618,7.022-10.716,9.528
			c-1.612,0.9-2.918,2.223-4.409,3.291c2.44-2.209,4.836-4.479,7.105-6.869c3.645-3.783,6.588-8.172,9.311-12.646
			c1.868-3.32,5.405-5.041,7.974-7.709c1.242-1.289,2.749-2.441,3.394-4.179c-0.556-0.246-1.206-0.354-1.628-0.817
			c-0.302-0.498-0.188-1.179,0.19-1.604c3.408-4.291,6.824-8.577,10.234-12.866c0.579-0.734,1.169-1.465,1.673-2.255
			c-2.604,0.71-5.121,1.696-7.695,2.498c-0.631,0.183-1.4,0.253-1.889-0.271c-0.359-0.937,0.048-1.932,0.593-2.699
			c1.184-1.719,2.652-3.219,3.836-4.937c-1.092-0.559-2.567-1.116-2.78-2.491c-0.334-2.179,1.457-3.84,2.93-5.15
			c2.328-2.1,5.213-3.665,7.005-6.299c-2.404-0.711-5.064-0.062-7.377-1.17c-0.818-0.41-1.831-1.092-1.68-2.145
			c0.168-1.8,1.875-2.82,3.237-3.732c2.087-1.129,4.217-2.323,5.824-4.105C132.489,11.781,131.059,12.458,129.572,12.699
			L129.572,12.699z"/>
		<path id="path6073" fill="#FFFFFF" d="M105.488,23.32c0.987-0.758,1.923-1.614,3.058-2.15c-1.013,1.195-2.23,2.189-3.322,3.305
			c-7.184,7.121-13.818,14.942-18.618,23.891c2.78-3.676,5.706-7.344,9.477-10.053c-0.435,1.406-1.179,2.688-1.826,3.998
			c-1.882,3.701-3.923,7.32-5.831,11.008c1.742-1.432,3.163-3.323,5.193-4.355c-0.276,1.15-0.918,2.154-1.522,3.155
			c-0.899,1.457-1.82,2.901-2.883,4.248c-2.321,3.001-4.634,6.012-6.964,9.006c-0.673,0.884-1.096,1.917-1.606,2.894
			c-0.689,1.42-1.671,2.676-2.38,4.082c0.342-0.266,0.684-0.533,0.98-0.854c2.798-3.1,5.427-6.354,8.259-9.421
			c2.359-2.06,4.505-4.417,7.131-6.147c-0.281,1.229-1.009,2.281-1.706,3.311c-2.257,3.163-4.972,5.976-7.171,9.182
			c2.191-1.57,4.462-3.146,7.126-3.801c-2.381,2.975-5.666,5-8.645,7.307c-2.049,1.622-4.554,2.572-6.537,4.283
			c2.563-0.918,5.09-1.938,7.642-2.893c1.579-0.582,3.064-1.719,4.832-1.534c-0.6,0.791-1.484,1.269-2.312,1.774
			c-2.782,1.654-5.674,3.116-8.555,4.588c-0.972,0.51-2.001,0.927-2.883,1.596c3.077,0.273,6.15-0.924,9.22-0.291
			c-1.527,0.836-3.342,0.845-5.019,1.181c-1.446,0.304-2.933,0.353-4.367,0.712c2.892,0.691,5.861,1.068,8.724,1.883
			c-3.612,0.778-7.334,0.439-10.996,0.539c1.945,3.211,5.361,4.953,8.222,7.203c2.758,1.827,4.555,4.82,5.358,7.988
			c0.312,1.71-0.266,3.547-1.478,4.786c-0.259,0.276-0.961,0.241-1.043-0.188c-0.816-2.423-0.188-5.089-1.059-7.507
			c-0.513-1.832-1.949-3.164-3.228-4.489c-2.149-2.229-4.611-4.137-6.715-6.41c-0.417-0.44-0.719-0.977-1.029-1.488
			c0.257-0.275,0.485-0.664,0.904-0.694c1.209-0.188,2.439-0.059,3.656-0.204c-0.937-0.261-2.12-0.145-2.832-0.891
			c-0.232-0.646-0.757-1.305-0.579-2.016c0.368-0.627,0.998-1.021,1.572-1.435c-0.866,0.106-1.665-0.099-2.096-0.911
			c-1.705,1.354-3.867,2.618-6.118,1.984c-3.108,1.121-6.476,0.918-9.698,0.521c-1.834-0.179-3.756-0.205-5.479,0.547
			c-1.801,0.787-3.607,1.853-4.713,3.526c-0.949,1.339-0.835,3.416,0.471,4.479c1.363,1.148,3.291,1.021,4.935,0.729
			c1.276-0.062,2.941-0.434,3.841,0.752c2.124,2.438,4.174,4.944,6.464,7.231c2.538,2.665,5.193,5.287,8.375,7.18
			c0.667-0.521,1.468-0.818,2.324-0.754c3.272-0.314,6.225,1.525,8.793,3.323c-2.714,0.221-5.247-1.312-7.964-0.914
			c2.044,1.039,5.122,2.665,9.381,3.591c0.584,0.127,4.887,0.245,5.604,0.348c-7.266,1.32-12.979-2.231-15.581-2.927
			c-0.336,0.577-0.519,1.349-1.144,1.688c-0.959,0.315-1.985,0.104-2.963,0.051c0.024-1.188,0.342-2.338,0.741-3.449
			c-0.316-0.21-0.634-0.415-0.95-0.615c-2.326-1.516-4.499-3.271-6.487-5.207c-2.182-2.25-4.329-4.533-6.358-6.918
			c-0.542-0.591-1.042-1.253-1.742-1.66c-1.277-0.271-2.583,0.039-3.867,0.125c-1.146,0.11-2.284-0.052-3.406-0.262
			c-1.272-0.031-1.903,1.292-2.895,1.861c-0.303-1.393,0.86-2.704,0.548-4.071c-1.038-1.677-0.931-3.885,0.083-5.547
			c1.216-2.117,3.424-3.403,5.58-4.399c3.361-1.547,7.12-0.553,10.667-0.604c2.087-0.044,4.434-0.268,6.005-1.803
			c1.422-1.437,2.687-3.021,4.083-4.479c0.543-0.679,1.263-1.249,1.605-2.067c1.979-5.375,4.032-10.741,6.622-15.857
			c0.75-1.369,1.449-2.766,2.093-4.189c0.011-0.02,0.031-0.06,0.042-0.078c0.938-1.387,1.77-2.838,2.661-4.252
			c0.904-1.262,1.827-2.514,2.551-3.888C92.646,34.547,98.834,28.584,105.488,23.32L105.488,23.32z"/>
		<path id="path6075" fill="#FFFFFF" d="M113.256,24.547c1.811-0.875,3.676-2.037,5.752-1.959c-0.061,1.039-0.916,1.708-1.601,2.375
			c-1.705,1.596-3.832,2.609-5.669,4.029c-5.075,3.633-9.89,7.617-14.935,11.292c2.037-2.33,4.041-4.69,6.152-6.953
			C105.937,29.922,109.467,27.014,113.256,24.547L113.256,24.547z"/>
		<path id="path6077" fill="#FFFFFF" d="M21.679,41.331c12.105-10.737,28.002-16.924,44.116-17.774
			c2.082-0.217,4.18-0.116,6.271-0.131c2.195-0.025,4.366,0.441,6.448,1.111c0.784,0.24,1.514,0.63,2.188,1.098
			c-1.444,0.26-2.907,0.108-4.358,0.123C59.459,25.723,42.55,31.76,29.721,42.783c-1.837,1.775-3.65,3.582-5.428,5.417
			C13.783,59.461,7.528,74.771,7.794,90.221c-0.074,5.991,1.062,11.953,2.829,17.66c0.967,2.756,1.959,5.525,3.336,8.109
			c2.615,5.062,5.695,9.949,9.633,14.098c3.09,3.408,6.375,6.689,10.16,9.336c1.481,1.077,3.005,2.098,4.564,3.062
			c4.975,3.125,10.395,5.547,16.043,7.158c6.504,1.701,13.303,2.283,20.008,1.848c17.151-0.951,33.962-8.17,46.17-20.311
			c2.659-0.244-0.224,0,9.44-0.297c-0.371,0.938-2.961,3.551-3.667,4.211c-8.656,8.027-19.427,13.688-30.855,16.567
			c-12.447,3.195-25.637,2.991-38.126,0.136c-10.855-2.414-21.411-6.646-30.455-13.188c-5.255-3.779-9.966-8.334-13.937-13.45
			C3.688,113.268-1.157,97.902,0.236,82.855C1.314,69.042,7.492,55.78,16.984,45.73C18.388,44.1,19.979,42.649,21.679,41.331
			L21.679,41.331z"/>
		<path id="path6079" fill="#FFFFFF" d="M82.251,42.438c1.158,1.17,1.991,1.943,2.942,2.955c-0.893,1.414-1.36,2.334-2.66,4.252
			C82.525,47.237,82.399,44.909,82.251,42.438L82.251,42.438z"/>
		<path id="path6081" fill="#FFFFFF" d="M82.491,49.723c0.011-0.021,0.031-0.061,0.042-0.08
			C82.522,49.663,82.502,49.703,82.491,49.723z"/>
		<path id="path6083" fill="#FFFFFF" d="M82.491,49.723c-0.645,1.424-1.344,2.82-2.094,4.188c-1.647-0.046-2.537-0.233-4.928-0.437
			C77.851,52.26,80.372,50.883,82.491,49.723z"/>
		<path id="path6085" fill="#FFFFFF" d="M144.761,50.389c1.284-0.429,2.641-0.969,4.016-0.653c0.128,1.172-0.824,1.993-1.562,2.751
			c-1.797,1.66-3.745,3.185-5.901,4.354c-2.42,1.469-4.731,3.114-7.12,4.637c-2.082,1.613-4.303,3.047-6.323,4.735
			c2.365-0.698,4.741-1.979,7.282-1.434c-1.956,2.68-5.4,3.321-8.098,4.962c-5.595,2.816-11.01,5.975-16.562,8.863
			c1.576-1.607,3.519-2.811,5.097-4.418c3.483-3.734,6.866-7.575,10.527-11.141c3.888-3.792,8.28-7.023,12.809-10.003
			C140.766,51.953,142.762,51.143,144.761,50.389L144.761,50.389z"/>
		<path id="path6087" fill="#FFFFFF" d="M55.635,58.859c2.222,2.068,2.777,2.855,4.486,4.273c1.913-1.254,3.146-2.164,5.072-3.695
			c-0.638,2.134-1.187,3.897-1.756,6.565c1.217,1.306,1.895,2.197,3.863,4.105c-2.581,0.077-3.812,0.122-5.631,0.302
			c-0.862,1.948-1.489,3.952-2.356,5.932c-0.51-1.936-0.875-3.953-1.447-6.357c-2.214-0.585-3.872-0.777-5.77-1.249
			c1.591-1.037,3.19-2.062,4.799-3.077C56.476,63.111,56.27,62.122,55.635,58.859L55.635,58.859z"/>
		<path id="path6089" fill="#FFFFFF" d="M127.869,66.213c2.021-1.688,4.242-3.123,6.323-4.736c1.013,1.01,2.028,2.074,2.627,3.396
			c0.669,1.401,1.52,2.721,2.05,4.186c2.292,6.144,3.556,12.664,3.763,19.218c0.015,3.256,0.118,6.084-0.52,9.751
			c-6.546-7.039-14.656-12.553-22.617-15.691c0.55-0.88,0.587-1.934,0.618-2.939c-0.022-0.482,0.451-0.75,0.768-1.027
			c1.879-1.432,3.807-2.842,5.364-4.633c0.422-0.502,0.818-1.053,1.013-1.686c-0.006-0.496-0.334-0.91-0.528-1.34
			c-0.071-0.132-0.211-0.394-0.282-0.525c0.151-0.11,0.454-0.334,0.605-0.44c2.697-1.642,6.142-2.282,8.098-4.962
			C132.61,64.234,130.233,65.514,127.869,66.213L127.869,66.213z"/>
		<path id="path6091" fill="#FFFFFF" d="M25.585,75.584c1.72-3.01,2.171-4.023,4.033-7.959c0.411,3.787,0.539,5.292,0.975,7.777
			c2.974-0.033,5.462-0.145,8.33-0.333c-2.551,1.862-4.919,3.522-7.547,5.337c0.277,2.557,0.496,4.027,0.958,6.954
			c-2.539-1.437-3.964-2.341-5.897-3.589c-2.515,1.385-4.489,2.701-7.3,4.535c1.677-3.201,2.678-4.922,3.812-7.481
			c-1.686-1.765-3.188-3.036-5.132-5.022C20.473,75.805,23.01,75.624,25.585,75.584z"/>
		<path id="path6093" fill="#FFFFFF" d="M126.729,70.708c0.193,0.431,0.521,0.845,0.528,1.339c-0.194,0.635-0.591,1.184-1.013,1.687
			c-1.558,1.79-3.484,3.202-5.364,4.633c-0.316,0.28-0.791,0.545-0.768,1.028c-0.031,1.008-0.067,2.062-0.618,2.938
			c-2.302,3.269-6.177,4.812-9.842,6c-2.845,0.911-5.688,1.841-8.522,2.789c-1.665,0.544-3.312,1.246-5.087,1.302
			c0.771-1.226,2.164-1.811,3.41-2.427c4.776-2.171,9.55-4.349,14.335-6.495c1.169-0.535,2.139-1.404,3.095-2.255
			c-0.517-0.346-1.435-0.495-1.418-1.271c-0.186-0.94,0.816-1.418,1.503-1.774c2.717-1.267,5.332-2.78,7.699-4.625
			C125.526,72.768,126.719,72.031,126.729,70.708L126.729,70.708z"/>
		<path id="path6097" fill="#FFFFFF" d="M101.132,91.125c2.834-0.949,5.678-1.878,8.522-2.789c0.622,0.445,1.403,0.477,2.125,0.637
			c7.692,1.559,14.561,5.689,20.65,10.498c1.258,1.025,2.627,1.922,3.764,3.092c1.341,1.371,3.707,3.603,4.671,5.291
			c-0.99,4.451-1.569,5.91-3.792,11.367c-5.093-6.455-11.429-11.715-19.146-14.293c-5.583-1.609-9.729-1.353-14.565-1.056
			c-1.201,0.158-2.416,0.251-3.582,0.588c-1.271-1.389-2.62-2.705-4.035-3.942c-0.559-0.502-1.229-0.855-1.944-1.067l-0.174-0.06
			c-0.077-1.521-1.115-2.789-1.275-4.304c1.161-0.959,2.281-2.108,3.693-2.663c1.775-0.053,3.422-0.755,5.087-1.297L101.132,91.125
			L101.132,91.125z"/>
		<path id="path6099" fill="#FFFFFF" d="M7.794,90.221c2.586,2.733,5.518,5.188,8.859,6.948c3.477,1.718,7.31,2.835,11.216,2.734
			c5.353,0.252,10.53-1.535,15.312-3.774c1.756-0.732,3.368-1.748,5.009-2.699c1.155-0.682,2.479-1.188,3.315-2.289
			c1.284-0.086,2.59-0.396,3.867-0.125c0.7,0.408,1.2,1.07,1.742,1.66c2.03,2.385,4.178,4.668,6.358,6.918
			c-0.536,0.617-1.167,1.146-1.825,1.633c-8.082,6.177-16.485,12.266-26.148,15.711c-6.193,2.246-13.174,2.627-19.41,0.324
			c-0.763-0.316-1.644-0.553-2.131-1.271c-1.377-2.584-2.37-5.354-3.336-8.108C8.857,102.174,7.72,96.212,7.794,90.221L7.794,90.221
			z"/>
		<path id="path6103" fill="#FFFFFF" d="M93.801,99.447c0.715,0.212,1.386,0.568,1.944,1.07c1.415,1.234,2.764,2.554,4.035,3.939
			c3.215,3.573,5.929,7.557,9.105,11.159c2.481,2.754,5.232,5.269,8.249,7.423c1.167,0.896,2.481,1.626,3.502,2.702
			c-4.061,0.427-8.116-1.031-11.335-3.461c1.435,1.62,3,3.125,4.654,4.521c0.413,0.353,0.732,0.795,1.043,1.24
			c-4.111-0.107-8.059-2.162-10.629-5.354c-4.152-4.967-6.021-11.286-8.551-17.135c-0.551-1.444-1.386-2.763-1.893-4.226
			c0.847,0.629,1.542,1.429,2.303,2.156C95.543,102.069,94.59,100.807,93.801,99.447z"/>
		<path id="path6105" fill="#FFFFFF" d="M91.649,101.037c0.657,1.426,0.865,2.997,1.344,4.48c1.925,6.83,5.908,12.824,10.052,18.494
			c0.882,1.229,1.366,2.754,1.161,4.271c-0.604-0.075-1.222-0.192-1.69-0.603c-1.977-1.322-2.96-3.564-4.161-5.526
			C94.602,115.704,92.786,108.352,91.649,101.037L91.649,101.037z"/>
		<path id="path6107" fill="#FFFFFF" d="M69.961,104.801c0.316,0.201,0.633,0.406,0.95,0.616c-0.399,1.111-0.717,2.261-0.741,3.449
			c0.978,0.053,2.004,0.269,2.963-0.049c0.625-0.341,0.807-1.111,1.144-1.688c3.273,0.774,7.273,3.215,12.049,3.188
			c-3.277,0.95-5.966,3.133-9.191,5.532c-9.171,6.551-18.073,13.908-27.458,20.168c-3.661,2.358-7.399,4.629-11.357,6.468
			c-1.56-0.964-3.083-1.982-4.564-3.062c-3.784-2.646-7.07-5.929-10.16-9.337c2.133-0.54,4.376-0.519,6.479-1.216
			c6.986-1.718,13.347-5.255,19.357-9.104c5.695-3.703,11.013-7.938,16.453-11.998C67.255,106.801,68.521,105.674,69.961,104.801
			L69.961,104.801z"/>
		<path id="path6109" fill="#FFFFFF" d="M105.395,109.909c3.796,2.226,7.473,4.67,11.426,6.618c1.206,0.585,2.41,1.281,3.227,2.377
			c-1.294,0.341-2.564-0.258-3.753-0.696C112.14,116.217,108.643,113.124,105.395,109.909L105.395,109.909z"/>
		<path fill="#FFFFFF" d="M51.048,84.936c-0.083-0.354-0.4-0.607-0.767-0.607c-0.435,0-0.786,0.352-0.786,0.788
			c0,0.433,0.352,0.785,0.786,0.785s0.787-0.353,0.787-0.785"/>
	</g>
</g>
</svg>
